<?xml version="1.0" encoding="utf-8"?>
<svg xmlns="http://www.w3.org/2000/svg" xmlns:xlink="http://www.w3.org/1999/xlink" width="150" height="100" viewBox="0 0 600 400">
<defs>
  <clipPath id="clip330">
    <rect x="0" y="0" width="600" height="400"/>
  </clipPath>
</defs>
<path clip-path="url(#clip330)" d="
M0 400 L600 400 L600 0 L0 0  Z
  " fill="#ffffff" fill-rule="evenodd" fill-opacity="1"/>
<defs>
  <clipPath id="clip331">
    <rect x="120" y="0" width="421" height="400"/>
  </clipPath>
</defs>
<path clip-path="url(#clip330)" d="
M52.9006 355.795 L588.189 355.795 L588.189 30.868 L52.9006 30.868  Z
  " fill="#ffffff" fill-rule="evenodd" fill-opacity="1"/>
<defs>
  <clipPath id="clip332">
    <rect x="52" y="30" width="536" height="326"/>
  </clipPath>
</defs>
<polyline clip-path="url(#clip332)" style="stroke:#000000; stroke-width:0.5; stroke-opacity:0.1; fill:none" points="
  67.5448,355.795 67.5448,30.868 
  "/>
<polyline clip-path="url(#clip332)" style="stroke:#000000; stroke-width:0.5; stroke-opacity:0.1; fill:none" points="
  193.918,355.795 193.918,30.868 
  "/>
<polyline clip-path="url(#clip332)" style="stroke:#000000; stroke-width:0.5; stroke-opacity:0.1; fill:none" points="
  320.292,355.795 320.292,30.868 
  "/>
<polyline clip-path="url(#clip332)" style="stroke:#000000; stroke-width:0.5; stroke-opacity:0.1; fill:none" points="
  446.666,355.795 446.666,30.868 
  "/>
<polyline clip-path="url(#clip332)" style="stroke:#000000; stroke-width:0.5; stroke-opacity:0.1; fill:none" points="
  573.039,355.795 573.039,30.868 
  "/>
<polyline clip-path="url(#clip330)" style="stroke:#000000; stroke-width:1; stroke-opacity:1; fill:none" points="
  52.9006,355.795 588.189,355.795 
  "/>
<polyline clip-path="url(#clip330)" style="stroke:#000000; stroke-width:1; stroke-opacity:1; fill:none" points="
  67.5448,355.795 67.5448,351.896 
  "/>
<polyline clip-path="url(#clip330)" style="stroke:#000000; stroke-width:1; stroke-opacity:1; fill:none" points="
  193.918,355.795 193.918,351.896 
  "/>
<polyline clip-path="url(#clip330)" style="stroke:#000000; stroke-width:1; stroke-opacity:1; fill:none" points="
  320.292,355.795 320.292,351.896 
  "/>
<polyline clip-path="url(#clip330)" style="stroke:#000000; stroke-width:1; stroke-opacity:1; fill:none" points="
  446.666,355.795 446.666,351.896 
  "/>
<polyline clip-path="url(#clip330)" style="stroke:#000000; stroke-width:1; stroke-opacity:1; fill:none" points="
  573.039,355.795 573.039,351.896 
  "/>
<path clip-path="url(#clip330)" d="M 0 0 M67.5448 363.093 Q66.642 363.093 66.1848 363.984 Q65.7334 364.869 65.7334 366.652 Q65.7334 368.428 66.1848 369.319 Q66.642 370.205 67.5448 370.205 Q68.4533 370.205 68.9047 369.319 Q69.3619 368.428 69.3619 366.652 Q69.3619 364.869 68.9047 363.984 Q68.4533 363.093 67.5448 363.093 M67.5448 362.167 Q68.9973 362.167 69.7612 363.318 Q70.5309 364.464 70.5309 366.652 Q70.5309 368.833 69.7612 369.985 Q68.9973 371.131 67.5448 371.131 Q66.0922 371.131 65.3226 369.985 Q64.5587 368.833 64.5587 366.652 Q64.5587 364.464 65.3226 363.318 Q66.0922 362.167 67.5448 362.167 Z" fill="#000000" fill-rule="evenodd" fill-opacity="1" /><path clip-path="url(#clip330)" d="M 0 0 M185.953 369.979 L190.032 369.979 L190.032 370.963 L184.546 370.963 L184.546 369.979 Q185.212 369.291 186.358 368.133 Q187.509 366.97 187.804 366.634 Q188.366 366.003 188.586 365.569 Q188.811 365.13 188.811 364.707 Q188.811 364.019 188.325 363.585 Q187.845 363.151 187.069 363.151 Q186.52 363.151 185.906 363.341 Q185.299 363.532 184.604 363.92 L184.604 362.74 Q185.31 362.456 185.924 362.311 Q186.537 362.167 187.046 362.167 Q188.389 362.167 189.188 362.838 Q189.986 363.509 189.986 364.632 Q189.986 365.164 189.784 365.645 Q189.587 366.119 189.06 366.767 Q188.916 366.935 188.14 367.74 Q187.365 368.538 185.953 369.979 Z" fill="#000000" fill-rule="evenodd" fill-opacity="1" /><path clip-path="url(#clip330)" d="M 0 0 M191.311 362.323 L195.9 362.323 L195.9 363.307 L192.382 363.307 L192.382 365.425 Q192.637 365.338 192.891 365.297 Q193.146 365.251 193.4 365.251 Q194.847 365.251 195.692 366.044 Q196.537 366.837 196.537 368.191 Q196.537 369.586 195.669 370.361 Q194.801 371.131 193.221 371.131 Q192.677 371.131 192.11 371.038 Q191.549 370.946 190.947 370.76 L190.947 369.586 Q191.468 369.869 192.023 370.008 Q192.579 370.147 193.198 370.147 Q194.199 370.147 194.784 369.62 Q195.368 369.094 195.368 368.191 Q195.368 367.288 194.784 366.762 Q194.199 366.235 193.198 366.235 Q192.729 366.235 192.26 366.339 Q191.797 366.443 191.311 366.663 L191.311 362.323 Z" fill="#000000" fill-rule="evenodd" fill-opacity="1" /><path clip-path="url(#clip330)" d="M 0 0 M200.304 363.093 Q199.402 363.093 198.944 363.984 Q198.493 364.869 198.493 366.652 Q198.493 368.428 198.944 369.319 Q199.402 370.205 200.304 370.205 Q201.213 370.205 201.664 369.319 Q202.121 368.428 202.121 366.652 Q202.121 364.869 201.664 363.984 Q201.213 363.093 200.304 363.093 M200.304 362.167 Q201.757 362.167 202.521 363.318 Q203.29 364.464 203.29 366.652 Q203.29 368.833 202.521 369.985 Q201.757 371.131 200.304 371.131 Q198.852 371.131 198.082 369.985 Q197.318 368.833 197.318 366.652 Q197.318 364.464 198.082 363.318 Q198.852 362.167 200.304 362.167 Z" fill="#000000" fill-rule="evenodd" fill-opacity="1" /><path clip-path="url(#clip330)" d="M 0 0 M311.108 362.323 L315.697 362.323 L315.697 363.307 L312.179 363.307 L312.179 365.425 Q312.433 365.338 312.688 365.297 Q312.943 365.251 313.197 365.251 Q314.644 365.251 315.489 366.044 Q316.334 366.837 316.334 368.191 Q316.334 369.586 315.466 370.361 Q314.598 371.131 313.018 371.131 Q312.474 371.131 311.907 371.038 Q311.345 370.946 310.743 370.76 L310.743 369.586 Q311.264 369.869 311.82 370.008 Q312.375 370.147 312.995 370.147 Q313.996 370.147 314.58 369.62 Q315.165 369.094 315.165 368.191 Q315.165 367.288 314.58 366.762 Q313.996 366.235 312.995 366.235 Q312.526 366.235 312.057 366.339 Q311.594 366.443 311.108 366.663 L311.108 362.323 Z" fill="#000000" fill-rule="evenodd" fill-opacity="1" /><path clip-path="url(#clip330)" d="M 0 0 M320.101 363.093 Q319.198 363.093 318.741 363.984 Q318.29 364.869 318.29 366.652 Q318.29 368.428 318.741 369.319 Q319.198 370.205 320.101 370.205 Q321.01 370.205 321.461 369.319 Q321.918 368.428 321.918 366.652 Q321.918 364.869 321.461 363.984 Q321.01 363.093 320.101 363.093 M320.101 362.167 Q321.554 362.167 322.317 363.318 Q323.087 364.464 323.087 366.652 Q323.087 368.833 322.317 369.985 Q321.554 371.131 320.101 371.131 Q318.649 371.131 317.879 369.985 Q317.115 368.833 317.115 366.652 Q317.115 364.464 317.879 363.318 Q318.649 362.167 320.101 362.167 Z" fill="#000000" fill-rule="evenodd" fill-opacity="1" /><path clip-path="url(#clip330)" d="M 0 0 M326.855 363.093 Q325.952 363.093 325.495 363.984 Q325.043 364.869 325.043 366.652 Q325.043 368.428 325.495 369.319 Q325.952 370.205 326.855 370.205 Q327.763 370.205 328.214 369.319 Q328.672 368.428 328.672 366.652 Q328.672 364.869 328.214 363.984 Q327.763 363.093 326.855 363.093 M326.855 362.167 Q328.307 362.167 329.071 363.318 Q329.841 364.464 329.841 366.652 Q329.841 368.833 329.071 369.985 Q328.307 371.131 326.855 371.131 Q325.402 371.131 324.632 369.985 Q323.868 368.833 323.868 366.652 Q323.868 364.464 324.632 363.318 Q325.402 362.167 326.855 362.167 Z" fill="#000000" fill-rule="evenodd" fill-opacity="1" /><path clip-path="url(#clip330)" d="M 0 0 M437.259 362.323 L442.814 362.323 L442.814 362.821 L439.678 370.963 L438.457 370.963 L441.408 363.307 L437.259 363.307 L437.259 362.323 Z" fill="#000000" fill-rule="evenodd" fill-opacity="1" /><path clip-path="url(#clip330)" d="M 0 0 M444.093 362.323 L448.682 362.323 L448.682 363.307 L445.164 363.307 L445.164 365.425 Q445.419 365.338 445.673 365.297 Q445.928 365.251 446.182 365.251 Q447.629 365.251 448.474 366.044 Q449.319 366.837 449.319 368.191 Q449.319 369.586 448.451 370.361 Q447.583 371.131 446.003 371.131 Q445.459 371.131 444.892 371.038 Q444.331 370.946 443.729 370.76 L443.729 369.586 Q444.25 369.869 444.805 370.008 Q445.361 370.147 445.98 370.147 Q446.981 370.147 447.566 369.62 Q448.15 369.094 448.15 368.191 Q448.15 367.288 447.566 366.762 Q446.981 366.235 445.98 366.235 Q445.511 366.235 445.042 366.339 Q444.579 366.443 444.093 366.663 L444.093 362.323 Z" fill="#000000" fill-rule="evenodd" fill-opacity="1" /><path clip-path="url(#clip330)" d="M 0 0 M453.086 363.093 Q452.184 363.093 451.726 363.984 Q451.275 364.869 451.275 366.652 Q451.275 368.428 451.726 369.319 Q452.184 370.205 453.086 370.205 Q453.995 370.205 454.446 369.319 Q454.903 368.428 454.903 366.652 Q454.903 364.869 454.446 363.984 Q453.995 363.093 453.086 363.093 M453.086 362.167 Q454.539 362.167 455.303 363.318 Q456.072 364.464 456.072 366.652 Q456.072 368.833 455.303 369.985 Q454.539 371.131 453.086 371.131 Q451.634 371.131 450.864 369.985 Q450.1 368.833 450.1 366.652 Q450.1 364.464 450.864 363.318 Q451.634 362.167 453.086 362.167 Z" fill="#000000" fill-rule="evenodd" fill-opacity="1" /><path clip-path="url(#clip330)" d="M 0 0 M560.505 369.979 L562.414 369.979 L562.414 363.388 L560.337 363.804 L560.337 362.74 L562.403 362.323 L563.572 362.323 L563.572 369.979 L565.481 369.979 L565.481 370.963 L560.505 370.963 L560.505 369.979 Z" fill="#000000" fill-rule="evenodd" fill-opacity="1" /><path clip-path="url(#clip330)" d="M 0 0 M569.249 363.093 Q568.346 363.093 567.889 363.984 Q567.437 364.869 567.437 366.652 Q567.437 368.428 567.889 369.319 Q568.346 370.205 569.249 370.205 Q570.157 370.205 570.609 369.319 Q571.066 368.428 571.066 366.652 Q571.066 364.869 570.609 363.984 Q570.157 363.093 569.249 363.093 M569.249 362.167 Q570.701 362.167 571.465 363.318 Q572.235 364.464 572.235 366.652 Q572.235 368.833 571.465 369.985 Q570.701 371.131 569.249 371.131 Q567.796 371.131 567.027 369.985 Q566.263 368.833 566.263 366.652 Q566.263 364.464 567.027 363.318 Q567.796 362.167 569.249 362.167 Z" fill="#000000" fill-rule="evenodd" fill-opacity="1" /><path clip-path="url(#clip330)" d="M 0 0 M576.002 363.093 Q575.099 363.093 574.642 363.984 Q574.191 364.869 574.191 366.652 Q574.191 368.428 574.642 369.319 Q575.099 370.205 576.002 370.205 Q576.911 370.205 577.362 369.319 Q577.819 368.428 577.819 366.652 Q577.819 364.869 577.362 363.984 Q576.911 363.093 576.002 363.093 M576.002 362.167 Q577.455 362.167 578.219 363.318 Q578.988 364.464 578.988 366.652 Q578.988 368.833 578.219 369.985 Q577.455 371.131 576.002 371.131 Q574.55 371.131 573.78 369.985 Q573.016 368.833 573.016 366.652 Q573.016 364.464 573.78 363.318 Q574.55 362.167 576.002 362.167 Z" fill="#000000" fill-rule="evenodd" fill-opacity="1" /><path clip-path="url(#clip330)" d="M 0 0 M582.756 363.093 Q581.853 363.093 581.396 363.984 Q580.944 364.869 580.944 366.652 Q580.944 368.428 581.396 369.319 Q581.853 370.205 582.756 370.205 Q583.664 370.205 584.116 369.319 Q584.573 368.428 584.573 366.652 Q584.573 364.869 584.116 363.984 Q583.664 363.093 582.756 363.093 M582.756 362.167 Q584.208 362.167 584.972 363.318 Q585.742 364.464 585.742 366.652 Q585.742 368.833 584.972 369.985 Q584.208 371.131 582.756 371.131 Q581.303 371.131 580.533 369.985 Q579.77 368.833 579.77 366.652 Q579.77 364.464 580.533 363.318 Q581.303 362.167 582.756 362.167 Z" fill="#000000" fill-rule="evenodd" fill-opacity="1" /><path clip-path="url(#clip330)" d="M 0 0 M291.048 380.131 L292.655 380.131 L292.655 392.011 L291.048 392.011 L291.048 380.131 Z" fill="#000000" fill-rule="evenodd" fill-opacity="1" /><path clip-path="url(#clip330)" d="M 0 0 M295.639 380.569 L295.639 383.099 L298.655 383.099 L298.655 384.237 L295.639 384.237 L295.639 389.075 Q295.639 390.165 295.933 390.475 Q296.236 390.786 297.151 390.786 L298.655 390.786 L298.655 392.011 L297.151 392.011 Q295.456 392.011 294.811 391.382 Q294.167 390.746 294.167 389.075 L294.167 384.237 L293.093 384.237 L293.093 383.099 L294.167 383.099 L294.167 380.569 L295.639 380.569 Z" fill="#000000" fill-rule="evenodd" fill-opacity="1" /><path clip-path="url(#clip330)" d="M 0 0 M307.813 387.189 L307.813 387.905 L301.082 387.905 Q301.177 389.417 301.989 390.213 Q302.808 391 304.264 391 Q305.108 391 305.896 390.794 Q306.691 390.587 307.471 390.173 L307.471 391.557 Q306.683 391.892 305.856 392.067 Q305.028 392.242 304.177 392.242 Q302.044 392.242 300.795 391 Q299.554 389.759 299.554 387.642 Q299.554 385.454 300.732 384.173 Q301.917 382.884 303.922 382.884 Q305.721 382.884 306.763 384.046 Q307.813 385.2 307.813 387.189 M306.349 386.759 Q306.333 385.558 305.673 384.842 Q305.02 384.125 303.938 384.125 Q302.713 384.125 301.973 384.818 Q301.241 385.51 301.129 386.767 L306.349 386.759 Z" fill="#000000" fill-rule="evenodd" fill-opacity="1" /><path clip-path="url(#clip330)" d="M 0 0 M314.513 384.468 Q314.267 384.324 313.972 384.261 Q313.686 384.189 313.336 384.189 Q312.094 384.189 311.426 385.001 Q310.765 385.804 310.765 387.316 L310.765 392.011 L309.293 392.011 L309.293 383.099 L310.765 383.099 L310.765 384.484 Q311.227 383.672 311.967 383.282 Q312.707 382.884 313.765 382.884 Q313.916 382.884 314.1 382.908 Q314.283 382.924 314.505 382.964 L314.513 384.468 Z" fill="#000000" fill-rule="evenodd" fill-opacity="1" /><path clip-path="url(#clip330)" d="M 0 0 M320.099 387.531 Q318.325 387.531 317.64 387.937 Q316.956 388.343 316.956 389.321 Q316.956 390.101 317.465 390.563 Q317.983 391.016 318.866 391.016 Q320.083 391.016 320.815 390.157 Q321.555 389.29 321.555 387.857 L321.555 387.531 L320.099 387.531 M323.019 386.926 L323.019 392.011 L321.555 392.011 L321.555 390.658 Q321.054 391.47 320.306 391.86 Q319.558 392.242 318.476 392.242 Q317.107 392.242 316.296 391.478 Q315.492 390.706 315.492 389.417 Q315.492 387.913 316.495 387.149 Q317.505 386.385 319.502 386.385 L321.555 386.385 L321.555 386.242 Q321.555 385.231 320.887 384.682 Q320.227 384.125 319.025 384.125 Q318.261 384.125 317.537 384.308 Q316.813 384.491 316.144 384.857 L316.144 383.505 Q316.948 383.194 317.704 383.043 Q318.46 382.884 319.176 382.884 Q321.11 382.884 322.065 383.887 Q323.019 384.889 323.019 386.926 Z" fill="#000000" fill-rule="evenodd" fill-opacity="1" /><path clip-path="url(#clip330)" d="M 0 0 M326.003 380.569 L326.003 383.099 L329.019 383.099 L329.019 384.237 L326.003 384.237 L326.003 389.075 Q326.003 390.165 326.298 390.475 Q326.6 390.786 327.515 390.786 L329.019 390.786 L329.019 392.011 L327.515 392.011 Q325.82 392.011 325.176 391.382 Q324.531 390.746 324.531 389.075 L324.531 384.237 L323.457 384.237 L323.457 383.099 L324.531 383.099 L324.531 380.569 L326.003 380.569 Z" fill="#000000" fill-rule="evenodd" fill-opacity="1" /><path clip-path="url(#clip330)" d="M 0 0 M330.555 383.099 L332.019 383.099 L332.019 392.011 L330.555 392.011 L330.555 383.099 M330.555 379.63 L332.019 379.63 L332.019 381.484 L330.555 381.484 L330.555 379.63 Z" fill="#000000" fill-rule="evenodd" fill-opacity="1" /><path clip-path="url(#clip330)" d="M 0 0 M337.008 384.125 Q335.83 384.125 335.146 385.048 Q334.462 385.964 334.462 387.563 Q334.462 389.162 335.138 390.085 Q335.822 391 337.008 391 Q338.178 391 338.862 390.077 Q339.546 389.154 339.546 387.563 Q339.546 385.979 338.862 385.056 Q338.178 384.125 337.008 384.125 M337.008 382.884 Q338.918 382.884 340.008 384.125 Q341.098 385.367 341.098 387.563 Q341.098 389.751 340.008 391 Q338.918 392.242 337.008 392.242 Q335.09 392.242 334 391 Q332.918 389.751 332.918 387.563 Q332.918 385.367 334 384.125 Q335.09 382.884 337.008 382.884 Z" fill="#000000" fill-rule="evenodd" fill-opacity="1" /><path clip-path="url(#clip330)" d="M 0 0 M350.042 386.632 L350.042 392.011 L348.578 392.011 L348.578 386.68 Q348.578 385.414 348.084 384.786 Q347.591 384.157 346.604 384.157 Q345.419 384.157 344.734 384.913 Q344.05 385.669 344.05 386.974 L344.05 392.011 L342.578 392.011 L342.578 383.099 L344.05 383.099 L344.05 384.484 Q344.575 383.68 345.284 383.282 Q346 382.884 346.931 382.884 Q348.466 382.884 349.254 383.839 Q350.042 384.786 350.042 386.632 Z" fill="#000000" fill-rule="evenodd" fill-opacity="1" /><polyline clip-path="url(#clip332)" style="stroke:#000000; stroke-width:0.5; stroke-opacity:0.1; fill:none" points="
  52.9006,346.599 588.189,346.599 
  "/>
<polyline clip-path="url(#clip332)" style="stroke:#000000; stroke-width:0.5; stroke-opacity:0.1; fill:none" points="
  52.9006,264.724 588.189,264.724 
  "/>
<polyline clip-path="url(#clip332)" style="stroke:#000000; stroke-width:0.5; stroke-opacity:0.1; fill:none" points="
  52.9006,182.849 588.189,182.849 
  "/>
<polyline clip-path="url(#clip332)" style="stroke:#000000; stroke-width:0.5; stroke-opacity:0.1; fill:none" points="
  52.9006,100.975 588.189,100.975 
  "/>
<polyline clip-path="url(#clip330)" style="stroke:#000000; stroke-width:1; stroke-opacity:1; fill:none" points="
  52.9006,355.795 52.9006,30.868 
  "/>
<polyline clip-path="url(#clip330)" style="stroke:#000000; stroke-width:1; stroke-opacity:1; fill:none" points="
  52.9006,346.599 59.3241,346.599 
  "/>
<polyline clip-path="url(#clip330)" style="stroke:#000000; stroke-width:1; stroke-opacity:1; fill:none" points="
  52.9006,264.724 59.3241,264.724 
  "/>
<polyline clip-path="url(#clip330)" style="stroke:#000000; stroke-width:1; stroke-opacity:1; fill:none" points="
  52.9006,182.849 59.3241,182.849 
  "/>
<polyline clip-path="url(#clip330)" style="stroke:#000000; stroke-width:1; stroke-opacity:1; fill:none" points="
  52.9006,100.975 59.3241,100.975 
  "/>
<path clip-path="url(#clip330)" d="M 0 0 M31.6727 343.049 Q30.7699 343.049 30.3127 343.94 Q29.8613 344.825 29.8613 346.608 Q29.8613 348.384 30.3127 349.275 Q30.7699 350.161 31.6727 350.161 Q32.5812 350.161 33.0326 349.275 Q33.4898 348.384 33.4898 346.608 Q33.4898 344.825 33.0326 343.94 Q32.5812 343.049 31.6727 343.049 M31.6727 342.123 Q33.1252 342.123 33.8891 343.274 Q34.6588 344.42 34.6588 346.608 Q34.6588 348.789 33.8891 349.941 Q33.1252 351.087 31.6727 351.087 Q30.2201 351.087 29.4505 349.941 Q28.6866 348.789 28.6866 346.608 Q28.6866 344.42 29.4505 343.274 Q30.2201 342.123 31.6727 342.123 Z" fill="#000000" fill-rule="evenodd" fill-opacity="1" /><path clip-path="url(#clip330)" d="M 0 0 M35.9261 349.449 L37.1472 349.449 L37.1472 350.919 L35.9261 350.919 L35.9261 349.449 Z" fill="#000000" fill-rule="evenodd" fill-opacity="1" /><path clip-path="url(#clip330)" d="M 0 0 M40.9145 343.049 Q40.0117 343.049 39.5546 343.94 Q39.1032 344.825 39.1032 346.608 Q39.1032 348.384 39.5546 349.275 Q40.0117 350.161 40.9145 350.161 Q41.8231 350.161 42.2745 349.275 Q42.7316 348.384 42.7316 346.608 Q42.7316 344.825 42.2745 343.94 Q41.8231 343.049 40.9145 343.049 M40.9145 342.123 Q42.367 342.123 43.1309 343.274 Q43.9006 344.42 43.9006 346.608 Q43.9006 348.789 43.1309 349.941 Q42.367 351.087 40.9145 351.087 Q39.462 351.087 38.6923 349.941 Q37.9284 348.789 37.9284 346.608 Q37.9284 344.42 38.6923 343.274 Q39.462 342.123 40.9145 342.123 Z" fill="#000000" fill-rule="evenodd" fill-opacity="1" /><path clip-path="url(#clip330)" d="M 0 0 M32.072 261.174 Q31.1692 261.174 30.712 262.065 Q30.2606 262.95 30.2606 264.733 Q30.2606 266.509 30.712 267.401 Q31.1692 268.286 32.072 268.286 Q32.9805 268.286 33.4319 267.401 Q33.8891 266.509 33.8891 264.733 Q33.8891 262.95 33.4319 262.065 Q32.9805 261.174 32.072 261.174 M32.072 260.248 Q33.5245 260.248 34.2884 261.399 Q35.0581 262.545 35.0581 264.733 Q35.0581 266.915 34.2884 268.066 Q33.5245 269.212 32.072 269.212 Q30.6194 269.212 29.8498 268.066 Q29.0859 266.915 29.0859 264.733 Q29.0859 262.545 29.8498 261.399 Q30.6194 260.248 32.072 260.248 Z" fill="#000000" fill-rule="evenodd" fill-opacity="1" /><path clip-path="url(#clip330)" d="M 0 0 M36.3254 267.574 L37.5465 267.574 L37.5465 269.044 L36.3254 269.044 L36.3254 267.574 Z" fill="#000000" fill-rule="evenodd" fill-opacity="1" /><path clip-path="url(#clip330)" d="M 0 0 M39.8208 268.06 L43.9006 268.06 L43.9006 269.044 L38.4145 269.044 L38.4145 268.06 Q39.08 267.372 40.2259 266.214 Q41.3775 265.051 41.6726 264.715 Q42.2339 264.085 42.4539 263.651 Q42.6795 263.211 42.6795 262.788 Q42.6795 262.1 42.1934 261.666 Q41.7131 261.232 40.9377 261.232 Q40.3879 261.232 39.7745 261.423 Q39.1668 261.614 38.4724 262.001 L38.4724 260.821 Q39.1784 260.537 39.7918 260.393 Q40.4053 260.248 40.9145 260.248 Q42.2571 260.248 43.0557 260.919 Q43.8543 261.59 43.8543 262.713 Q43.8543 263.246 43.6518 263.726 Q43.455 264.2 42.9284 264.849 Q42.7837 265.016 42.0083 265.821 Q41.2328 266.619 39.8208 268.06 Z" fill="#000000" fill-rule="evenodd" fill-opacity="1" /><path clip-path="url(#clip330)" d="M 0 0 M31.5511 179.299 Q30.6484 179.299 30.1912 180.19 Q29.7398 181.076 29.7398 182.858 Q29.7398 184.635 30.1912 185.526 Q30.6484 186.411 31.5511 186.411 Q32.4597 186.411 32.9111 185.526 Q33.3683 184.635 33.3683 182.858 Q33.3683 181.076 32.9111 180.19 Q32.4597 179.299 31.5511 179.299 M31.5511 178.373 Q33.0037 178.373 33.7676 179.525 Q34.5372 180.671 34.5372 182.858 Q34.5372 185.04 33.7676 186.191 Q33.0037 187.337 31.5511 187.337 Q30.0986 187.337 29.3289 186.191 Q28.565 185.04 28.565 182.858 Q28.565 180.671 29.3289 179.525 Q30.0986 178.373 31.5511 178.373 Z" fill="#000000" fill-rule="evenodd" fill-opacity="1" /><path clip-path="url(#clip330)" d="M 0 0 M35.8046 185.699 L37.0256 185.699 L37.0256 187.169 L35.8046 187.169 L35.8046 185.699 Z" fill="#000000" fill-rule="evenodd" fill-opacity="1" /><path clip-path="url(#clip330)" d="M 0 0 M41.5048 179.548 L38.5534 184.16 L41.5048 184.16 L41.5048 179.548 M41.1981 178.529 L42.668 178.529 L42.668 184.16 L43.9006 184.16 L43.9006 185.132 L42.668 185.132 L42.668 187.169 L41.5048 187.169 L41.5048 185.132 L37.6043 185.132 L37.6043 184.004 L41.1981 178.529 Z" fill="#000000" fill-rule="evenodd" fill-opacity="1" /><path clip-path="url(#clip330)" d="M 0 0 M31.6322 97.4242 Q30.7294 97.4242 30.2722 98.3154 Q29.8208 99.2008 29.8208 100.983 Q29.8208 102.76 30.2722 103.651 Q30.7294 104.536 31.6322 104.536 Q32.5407 104.536 32.9921 103.651 Q33.4493 102.76 33.4493 100.983 Q33.4493 99.2008 32.9921 98.3154 Q32.5407 97.4242 31.6322 97.4242 M31.6322 96.4983 Q33.0847 96.4983 33.8486 97.6499 Q34.6182 98.7957 34.6182 100.983 Q34.6182 103.165 33.8486 104.317 Q33.0847 105.462 31.6322 105.462 Q30.1796 105.462 29.4099 104.317 Q28.6461 103.165 28.6461 100.983 Q28.6461 98.7957 29.4099 97.6499 Q30.1796 96.4983 31.6322 96.4983 Z" fill="#000000" fill-rule="evenodd" fill-opacity="1" /><path clip-path="url(#clip330)" d="M 0 0 M35.8856 103.825 L37.1067 103.825 L37.1067 105.295 L35.8856 105.295 L35.8856 103.825 Z" fill="#000000" fill-rule="evenodd" fill-opacity="1" /><path clip-path="url(#clip330)" d="M 0 0 M41.0187 100.509 Q40.2316 100.509 39.7687 101.047 Q39.3115 101.585 39.3115 102.523 Q39.3115 103.454 39.7687 103.998 Q40.2316 104.536 41.0187 104.536 Q41.8057 104.536 42.2629 103.998 Q42.7258 103.454 42.7258 102.523 Q42.7258 101.585 42.2629 101.047 Q41.8057 100.509 41.0187 100.509 M43.3393 96.8455 L43.3393 97.9103 Q42.8995 97.702 42.4481 97.592 Q42.0025 97.4821 41.5627 97.4821 Q40.4053 97.4821 39.7918 98.2633 Q39.1842 99.0446 39.0974 100.624 Q39.4388 100.121 39.9539 99.8548 Q40.4689 99.5828 41.0881 99.5828 Q42.3902 99.5828 43.1425 100.376 Q43.9006 101.163 43.9006 102.523 Q43.9006 103.854 43.1136 104.658 Q42.3265 105.462 41.0187 105.462 Q39.5198 105.462 38.727 104.317 Q37.9342 103.165 37.9342 100.983 Q37.9342 98.9346 38.9064 97.7194 Q39.8786 96.4983 41.5164 96.4983 Q41.9562 96.4983 42.4018 96.5851 Q42.8532 96.6719 43.3393 96.8455 Z" fill="#000000" fill-rule="evenodd" fill-opacity="1" /><path clip-path="url(#clip330)" d="M 0 0 M4.12104 209.118 L4.12104 207.511 L14.6483 207.511 L14.6483 201.726 L16.001 201.726 L16.001 209.118 L4.12104 209.118 Z" fill="#000000" fill-rule="evenodd" fill-opacity="1" /><path clip-path="url(#clip330)" d="M 0 0 M8.11552 197.024 Q8.11552 198.201 9.03855 198.886 Q9.95362 199.57 11.553 199.57 Q13.1524 199.57 14.0754 198.894 Q14.9905 198.209 14.9905 197.024 Q14.9905 195.854 14.0675 195.17 Q13.1444 194.485 11.553 194.485 Q9.96953 194.485 9.0465 195.17 Q8.11552 195.854 8.11552 197.024 M6.87421 197.024 Q6.87421 195.114 8.11552 194.024 Q9.35683 192.934 11.553 192.934 Q13.7412 192.934 14.9905 194.024 Q16.2318 195.114 16.2318 197.024 Q16.2318 198.941 14.9905 200.031 Q13.7412 201.114 11.553 201.114 Q9.35683 201.114 8.11552 200.031 Q6.87421 198.941 6.87421 197.024 Z" fill="#000000" fill-rule="evenodd" fill-opacity="1" /><path clip-path="url(#clip330)" d="M 0 0 M7.35164 185.717 L8.73618 185.717 Q8.41789 186.337 8.25875 187.006 Q8.09961 187.674 8.09961 188.39 Q8.09961 189.48 8.43381 190.029 Q8.76801 190.57 9.4364 190.57 Q9.94566 190.57 10.2401 190.18 Q10.5265 189.791 10.7891 188.613 L10.9005 188.112 Q11.2347 186.552 11.8474 185.9 Q12.4522 185.239 13.5423 185.239 Q14.7836 185.239 15.5077 186.226 Q16.2318 187.205 16.2318 188.923 Q16.2318 189.639 16.0886 190.419 Q15.9533 191.191 15.6748 192.05 L14.1629 192.05 Q14.5847 191.239 14.7995 190.451 Q15.0064 189.663 15.0064 188.891 Q15.0064 187.857 14.6563 187.3 Q14.2982 186.743 13.6537 186.743 Q13.0569 186.743 12.7386 187.149 Q12.4203 187.547 12.1259 188.907 L12.0066 189.417 Q11.7201 190.777 11.1313 191.382 Q10.5345 191.987 9.50006 191.987 Q8.24283 191.987 7.55852 191.096 Q6.87421 190.204 6.87421 188.565 Q6.87421 187.754 6.99356 187.037 Q7.11292 186.321 7.35164 185.717 Z" fill="#000000" fill-rule="evenodd" fill-opacity="1" /><path clip-path="url(#clip330)" d="M 0 0 M7.35164 178.022 L8.73618 178.022 Q8.41789 178.643 8.25875 179.311 Q8.09961 179.979 8.09961 180.696 Q8.09961 181.786 8.43381 182.335 Q8.76801 182.876 9.4364 182.876 Q9.94566 182.876 10.2401 182.486 Q10.5265 182.096 10.7891 180.918 L10.9005 180.417 Q11.2347 178.857 11.8474 178.205 Q12.4522 177.545 13.5423 177.545 Q14.7836 177.545 15.5077 178.531 Q16.2318 179.51 16.2318 181.229 Q16.2318 181.945 16.0886 182.725 Q15.9533 183.496 15.6748 184.356 L14.1629 184.356 Q14.5847 183.544 14.7995 182.756 Q15.0064 181.969 15.0064 181.197 Q15.0064 180.162 14.6563 179.605 Q14.2982 179.048 13.6537 179.048 Q13.0569 179.048 12.7386 179.454 Q12.4203 179.852 12.1259 181.213 L12.0066 181.722 Q11.7201 183.083 11.1313 183.687 Q10.5345 184.292 9.50006 184.292 Q8.24283 184.292 7.55852 183.401 Q6.87421 182.51 6.87421 180.871 Q6.87421 180.059 6.99356 179.343 Q7.11292 178.627 7.35164 178.022 Z" fill="#000000" fill-rule="evenodd" fill-opacity="1" /><path clip-path="url(#clip330)" d="M 0 0 M228.837 3.024 L230.883 3.024 L230.883 16.4224 L238.246 16.4224 L238.246 18.144 L228.837 18.144 L228.837 3.024 Z" fill="#000000" fill-rule="evenodd" fill-opacity="1" /><path clip-path="url(#clip330)" d="M 0 0 M244.231 8.10788 Q242.732 8.10788 241.861 9.28265 Q240.99 10.4473 240.99 12.4829 Q240.99 14.5184 241.851 15.6932 Q242.722 16.8578 244.231 16.8578 Q245.72 16.8578 246.59 15.6831 Q247.461 14.5083 247.461 12.4829 Q247.461 10.4675 246.59 9.29277 Q245.72 8.10788 244.231 8.10788 M244.231 6.52803 Q246.661 6.52803 248.049 8.10788 Q249.436 9.68774 249.436 12.4829 Q249.436 15.2679 248.049 16.8578 Q246.661 18.4377 244.231 18.4377 Q241.79 18.4377 240.403 16.8578 Q239.025 15.2679 239.025 12.4829 Q239.025 9.68774 240.403 8.10788 Q241.79 6.52803 244.231 6.52803 Z" fill="#000000" fill-rule="evenodd" fill-opacity="1" /><path clip-path="url(#clip330)" d="M 0 0 M258.622 7.13567 L258.622 8.89781 Q257.832 8.49272 256.981 8.29018 Q256.13 8.08763 255.219 8.08763 Q253.831 8.08763 253.133 8.51298 Q252.444 8.93832 252.444 9.78901 Q252.444 10.4372 252.94 10.8119 Q253.436 11.1764 254.935 11.5106 L255.573 11.6524 Q257.558 12.0778 258.389 12.8576 Q259.229 13.6272 259.229 15.0147 Q259.229 16.5945 257.974 17.5161 Q256.728 18.4377 254.54 18.4377 Q253.629 18.4377 252.636 18.2554 Q251.654 18.0832 250.56 17.7288 L250.56 15.8046 Q251.593 16.3413 252.596 16.6148 Q253.599 16.8781 254.581 16.8781 Q255.897 16.8781 256.606 16.4325 Q257.315 15.9768 257.315 15.1565 Q257.315 14.3969 256.799 13.9918 Q256.292 13.5867 254.561 13.212 L253.912 13.0601 Q252.181 12.6955 251.411 11.9461 Q250.641 11.1866 250.641 9.87003 Q250.641 8.26992 251.776 7.39898 Q252.91 6.52803 254.996 6.52803 Q256.029 6.52803 256.941 6.67994 Q257.852 6.83185 258.622 7.13567 Z" fill="#000000" fill-rule="evenodd" fill-opacity="1" /><path clip-path="url(#clip330)" d="M 0 0 M268.415 7.13567 L268.415 8.89781 Q267.625 8.49272 266.774 8.29018 Q265.923 8.08763 265.012 8.08763 Q263.625 8.08763 262.926 8.51298 Q262.237 8.93832 262.237 9.78901 Q262.237 10.4372 262.733 10.8119 Q263.23 11.1764 264.728 11.5106 L265.366 11.6524 Q267.351 12.0778 268.182 12.8576 Q269.022 13.6272 269.022 15.0147 Q269.022 16.5945 267.767 17.5161 Q266.521 18.4377 264.333 18.4377 Q263.422 18.4377 262.43 18.2554 Q261.447 18.0832 260.353 17.7288 L260.353 15.8046 Q261.386 16.3413 262.389 16.6148 Q263.392 16.8781 264.374 16.8781 Q265.69 16.8781 266.399 16.4325 Q267.108 15.9768 267.108 15.1565 Q267.108 14.3969 266.592 13.9918 Q266.085 13.5867 264.354 13.212 L263.706 13.0601 Q261.974 12.6955 261.204 11.9461 Q260.434 11.1866 260.434 9.87003 Q260.434 8.26992 261.569 7.39898 Q262.703 6.52803 264.789 6.52803 Q265.822 6.52803 266.734 6.67994 Q267.645 6.83185 268.415 7.13567 Z" fill="#000000" fill-rule="evenodd" fill-opacity="1" /><path clip-path="url(#clip330)" d="M 0 0 M281.965 8.10788 Q280.466 8.10788 279.595 9.28265 Q278.724 10.4473 278.724 12.4829 Q278.724 14.5184 279.585 15.6932 Q280.456 16.8578 281.965 16.8578 Q283.454 16.8578 284.325 15.6831 Q285.196 14.5083 285.196 12.4829 Q285.196 10.4675 284.325 9.29277 Q283.454 8.10788 281.965 8.10788 M281.965 6.52803 Q284.396 6.52803 285.783 8.10788 Q287.17 9.68774 287.17 12.4829 Q287.17 15.2679 285.783 16.8578 Q284.396 18.4377 281.965 18.4377 Q279.524 18.4377 278.137 16.8578 Q276.76 15.2679 276.76 12.4829 Q276.76 9.68774 278.137 8.10788 Q279.524 6.52803 281.965 6.52803 Z" fill="#000000" fill-rule="evenodd" fill-opacity="1" /><path clip-path="url(#clip330)" d="M 0 0 M287.788 6.80147 L289.763 6.80147 L293.308 16.3211 L296.852 6.80147 L298.827 6.80147 L294.573 18.144 L292.042 18.144 L287.788 6.80147 Z" fill="#000000" fill-rule="evenodd" fill-opacity="1" /><path clip-path="url(#clip330)" d="M 0 0 M310.483 12.0069 L310.483 12.9183 L301.916 12.9183 Q302.037 14.8425 303.07 15.8552 Q304.113 16.8578 305.967 16.8578 Q307.04 16.8578 308.043 16.5945 Q309.055 16.3312 310.048 15.8046 L310.048 17.5667 Q309.045 17.9921 307.992 18.2149 Q306.939 18.4377 305.855 18.4377 Q303.141 18.4377 301.551 16.8578 Q299.971 15.278 299.971 12.5841 Q299.971 9.79914 301.47 8.16865 Q302.979 6.52803 305.531 6.52803 Q307.82 6.52803 309.147 8.00661 Q310.483 9.47506 310.483 12.0069 M308.62 11.46 Q308.6 9.93079 307.759 9.01934 Q306.929 8.10788 305.551 8.10788 Q303.992 8.10788 303.05 8.98896 Q302.118 9.87003 301.976 11.4701 L308.62 11.46 Z" fill="#000000" fill-rule="evenodd" fill-opacity="1" /><path clip-path="url(#clip330)" d="M 0 0 M319.011 8.54336 Q318.697 8.36107 318.322 8.28005 Q317.957 8.1889 317.512 8.1889 Q315.932 8.1889 315.081 9.22188 Q314.241 10.2447 314.241 12.1689 L314.241 18.144 L312.367 18.144 L312.367 6.80147 L314.241 6.80147 L314.241 8.56361 Q314.828 7.53063 315.77 7.0344 Q316.712 6.52803 318.059 6.52803 Q318.251 6.52803 318.484 6.55841 Q318.717 6.57867 319 6.6293 L319.011 8.54336 Z" fill="#000000" fill-rule="evenodd" fill-opacity="1" /><path clip-path="url(#clip330)" d="M 0 0 M327.558 6.80147 L329.421 6.80147 L329.421 18.144 L327.558 18.144 L327.558 6.80147 M327.558 2.38598 L329.421 2.38598 L329.421 4.74563 L327.558 4.74563 L327.558 2.38598 Z" fill="#000000" fill-rule="evenodd" fill-opacity="1" /><path clip-path="url(#clip330)" d="M 0 0 M333.219 3.581 L333.219 6.80147 L337.057 6.80147 L337.057 8.24967 L333.219 8.24967 L333.219 14.407 Q333.219 15.7945 333.594 16.1894 Q333.979 16.5844 335.143 16.5844 L337.057 16.5844 L337.057 18.144 L335.143 18.144 Q332.986 18.144 332.166 17.3439 Q331.346 16.5338 331.346 14.407 L331.346 8.24967 L329.978 8.24967 L329.978 6.80147 L331.346 6.80147 L331.346 3.581 L333.219 3.581 Z" fill="#000000" fill-rule="evenodd" fill-opacity="1" /><path clip-path="url(#clip330)" d="M 0 0 M348.714 12.0069 L348.714 12.9183 L340.146 12.9183 Q340.268 14.8425 341.301 15.8552 Q342.344 16.8578 344.197 16.8578 Q345.27 16.8578 346.273 16.5945 Q347.286 16.3312 348.278 15.8046 L348.278 17.5667 Q347.276 17.9921 346.222 18.2149 Q345.169 18.4377 344.086 18.4377 Q341.372 18.4377 339.782 16.8578 Q338.202 15.278 338.202 12.5841 Q338.202 9.79914 339.701 8.16865 Q341.209 6.52803 343.762 6.52803 Q346.05 6.52803 347.377 8.00661 Q348.714 9.47506 348.714 12.0069 M346.85 11.46 Q346.83 9.93079 345.99 9.01934 Q345.159 8.10788 343.782 8.10788 Q342.222 8.10788 341.28 8.98896 Q340.349 9.87003 340.207 11.4701 L346.85 11.46 Z" fill="#000000" fill-rule="evenodd" fill-opacity="1" /><path clip-path="url(#clip330)" d="M 0 0 M357.241 8.54336 Q356.927 8.36107 356.552 8.28005 Q356.188 8.1889 355.742 8.1889 Q354.162 8.1889 353.312 9.22188 Q352.471 10.2447 352.471 12.1689 L352.471 18.144 L350.597 18.144 L350.597 6.80147 L352.471 6.80147 L352.471 8.56361 Q353.058 7.53063 354 7.0344 Q354.942 6.52803 356.289 6.52803 Q356.481 6.52803 356.714 6.55841 Q356.947 6.57867 357.231 6.6293 L357.241 8.54336 Z" fill="#000000" fill-rule="evenodd" fill-opacity="1" /><path clip-path="url(#clip330)" d="M 0 0 M364.35 12.4424 Q362.092 12.4424 361.221 12.9588 Q360.35 13.4753 360.35 14.721 Q360.35 15.7135 360.998 16.3008 Q361.656 16.8781 362.781 16.8781 Q364.33 16.8781 365.262 15.7843 Q366.204 14.6805 366.204 12.8576 L366.204 12.4424 L364.35 12.4424 M368.067 11.6727 L368.067 18.144 L366.204 18.144 L366.204 16.4224 Q365.566 17.4553 364.614 17.9516 Q363.662 18.4377 362.284 18.4377 Q360.542 18.4377 359.509 17.4655 Q358.487 16.4831 358.487 14.8425 Q358.487 12.9285 359.763 11.9562 Q361.049 10.984 363.591 10.984 L366.204 10.984 L366.204 10.8017 Q366.204 9.51557 365.353 8.81679 Q364.512 8.10788 362.983 8.10788 Q362.011 8.10788 361.089 8.34081 Q360.168 8.57374 359.317 9.03959 L359.317 7.31796 Q360.34 6.923 361.302 6.73058 Q362.264 6.52803 363.175 6.52803 Q365.636 6.52803 366.852 7.80407 Q368.067 9.0801 368.067 11.6727 Z" fill="#000000" fill-rule="evenodd" fill-opacity="1" /><path clip-path="url(#clip330)" d="M 0 0 M371.865 3.581 L371.865 6.80147 L375.703 6.80147 L375.703 8.24967 L371.865 8.24967 L371.865 14.407 Q371.865 15.7945 372.239 16.1894 Q372.624 16.5844 373.789 16.5844 L375.703 16.5844 L375.703 18.144 L373.789 18.144 Q371.632 18.144 370.811 17.3439 Q369.991 16.5338 369.991 14.407 L369.991 8.24967 L368.624 8.24967 L368.624 6.80147 L369.991 6.80147 L369.991 3.581 L371.865 3.581 Z" fill="#000000" fill-rule="evenodd" fill-opacity="1" /><path clip-path="url(#clip330)" d="M 0 0 M377.657 6.80147 L379.521 6.80147 L379.521 18.144 L377.657 18.144 L377.657 6.80147 M377.657 2.38598 L379.521 2.38598 L379.521 4.74563 L377.657 4.74563 L377.657 2.38598 Z" fill="#000000" fill-rule="evenodd" fill-opacity="1" /><path clip-path="url(#clip330)" d="M 0 0 M385.871 8.10788 Q384.372 8.10788 383.501 9.28265 Q382.63 10.4473 382.63 12.4829 Q382.63 14.5184 383.491 15.6932 Q384.362 16.8578 385.871 16.8578 Q387.359 16.8578 388.23 15.6831 Q389.101 14.5083 389.101 12.4829 Q389.101 10.4675 388.23 9.29277 Q387.359 8.10788 385.871 8.10788 M385.871 6.52803 Q388.301 6.52803 389.689 8.10788 Q391.076 9.68774 391.076 12.4829 Q391.076 15.2679 389.689 16.8578 Q388.301 18.4377 385.871 18.4377 Q383.43 18.4377 382.043 16.8578 Q380.665 15.2679 380.665 12.4829 Q380.665 9.68774 382.043 8.10788 Q383.43 6.52803 385.871 6.52803 Z" fill="#000000" fill-rule="evenodd" fill-opacity="1" /><path clip-path="url(#clip330)" d="M 0 0 M402.459 11.298 L402.459 18.144 L400.596 18.144 L400.596 11.3587 Q400.596 9.7485 399.968 8.94845 Q399.34 8.14839 398.084 8.14839 Q396.575 8.14839 395.704 9.11048 Q394.833 10.0726 394.833 11.7334 L394.833 18.144 L392.96 18.144 L392.96 6.80147 L394.833 6.80147 L394.833 8.56361 Q395.502 7.54076 396.403 7.0344 Q397.314 6.52803 398.499 6.52803 Q400.454 6.52803 401.457 7.7433 Q402.459 8.94845 402.459 11.298 Z" fill="#000000" fill-rule="evenodd" fill-opacity="1" /><path clip-path="url(#clip330)" d="M 0 0 M411.645 7.13567 L411.645 8.89781 Q410.855 8.49272 410.004 8.29018 Q409.153 8.08763 408.242 8.08763 Q406.854 8.08763 406.156 8.51298 Q405.467 8.93832 405.467 9.78901 Q405.467 10.4372 405.963 10.8119 Q406.459 11.1764 407.958 11.5106 L408.596 11.6524 Q410.581 12.0778 411.412 12.8576 Q412.252 13.6272 412.252 15.0147 Q412.252 16.5945 410.996 17.5161 Q409.751 18.4377 407.563 18.4377 Q406.652 18.4377 405.659 18.2554 Q404.677 18.0832 403.583 17.7288 L403.583 15.8046 Q404.616 16.3413 405.619 16.6148 Q406.621 16.8781 407.604 16.8781 Q408.92 16.8781 409.629 16.4325 Q410.338 15.9768 410.338 15.1565 Q410.338 14.3969 409.822 13.9918 Q409.315 13.5867 407.584 13.212 L406.935 13.0601 Q405.204 12.6955 404.434 11.9461 Q403.664 11.1866 403.664 9.87003 Q403.664 8.26992 404.799 7.39898 Q405.933 6.52803 408.019 6.52803 Q409.052 6.52803 409.963 6.67994 Q410.875 6.83185 411.645 7.13567 Z" fill="#000000" fill-rule="evenodd" fill-opacity="1" /><polyline clip-path="url(#clip332)" style="stroke:#009af9; stroke-width:1; stroke-opacity:1; fill:none" points="
  68.0503,346.092 68.5558,48.9717 69.0613,203.563 69.5668,321.134 70.0723,327.792 70.5777,315.488 71.0832,98.907 71.5887,317.938 72.0942,40.0641 72.5997,298.74 
  73.1052,326.01 73.6107,332.354 74.1162,322.19 74.6217,321.442 75.1272,344.153 75.6327,274.112 76.1382,327.914 76.6437,306.478 77.1492,284.764 77.6547,300.92 
  78.1602,334.728 78.6657,344.048 79.1712,129.474 79.6767,328.692 80.1821,265.648 80.6876,344.248 81.1931,320.353 81.6986,189.905 82.2041,247.897 82.7096,319.8 
  83.2151,199.218 83.7206,339.404 84.2261,273.693 84.7316,267.983 85.2371,332.016 85.7426,297.632 86.2481,269.878 86.7536,315.462 87.2591,339.993 87.7646,346.599 
  88.2701,346.422 88.7756,346.532 89.281,306.05 89.7865,243.6 90.292,341.966 90.7975,346.007 91.303,319.032 91.8085,281.471 92.314,344.382 92.8195,345.573 
  93.325,318.082 93.8305,254.523 94.336,344.402 94.8415,312.029 95.347,341.504 95.8525,289.847 96.358,326.223 96.8635,334.125 97.369,324.383 97.8745,287.053 
  98.3799,281.464 98.8854,328.45 99.3909,332.606 99.8964,346.251 100.402,272.013 100.907,288.258 101.413,345.421 101.918,342.013 102.424,292.662 102.929,293.763 
  103.435,290.321 103.94,333.125 104.446,249.25 104.951,346.11 105.457,315.309 105.962,274.405 106.468,341.37 106.973,295.15 107.479,339.713 107.984,316.997 
  108.49,339.393 108.995,295.357 109.501,325.402 110.006,318.717 110.512,316.266 111.017,346.561 111.523,321.335 112.028,283.861 112.534,281.898 113.039,323.899 
  113.545,338.712 114.05,335.451 114.556,346.264 115.061,346.572 115.567,340.406 116.072,318.203 116.578,345.6 117.083,334.474 117.589,315.205 118.094,319.187 
  118.6,342.83 119.105,336.461 119.611,315.883 120.116,333.588 120.622,336.002 121.127,341.052 121.633,301.622 122.138,336.195 122.644,345.984 123.149,332.022 
  123.655,298.542 124.16,332.393 124.666,343.887 125.171,327.547 125.677,336.736 126.182,343.626 126.688,332.695 127.193,310.948 127.699,344.132 128.204,339.101 
  128.71,330.039 129.215,345.595 129.721,343.669 130.226,344.774 130.732,346.495 131.237,315.234 131.743,323.945 132.248,328.471 132.754,346.057 133.259,322.185 
  133.765,336.467 134.27,327.632 134.776,337.547 135.281,345.788 135.787,332.247 136.292,320.21 136.798,326.248 137.303,345.806 137.809,338.078 138.314,335.391 
  138.82,325.21 139.325,346.476 139.83,339.814 140.336,343.368 140.841,337.506 141.347,345.87 141.852,344.829 142.358,345.574 142.863,321.138 143.369,335.639 
  143.874,340.099 144.38,325.252 144.885,345.994 145.391,337.787 145.896,342.79 146.402,328.93 146.907,328.605 147.413,340.771 147.918,331.736 148.424,342.457 
  148.929,340.607 149.435,345.302 149.94,333.481 150.446,338.42 150.951,345.451 151.457,346.465 151.962,346.592 152.468,340.684 152.973,344.493 153.479,341.409 
  153.984,345.863 154.49,346.014 154.995,344.97 155.501,342.097 156.006,338.556 156.512,337.597 157.017,346.459 157.523,344.284 158.028,339.729 158.534,335.359 
  159.039,343.812 159.545,345.072 160.05,345.444 160.556,344.583 161.061,346.482 161.567,343.999 162.072,336.656 162.578,330.055 163.083,345.919 163.589,342.717 
  164.094,346.392 164.6,346.345 165.105,334.522 165.611,346.438 166.116,344.28 166.622,346.375 167.127,343.547 167.633,337.788 168.138,346.503 168.644,345.855 
  169.149,341.318 169.655,337.025 170.16,345.255 170.666,343.335 171.171,346.554 171.677,341.82 172.182,346.589 172.688,344.832 173.193,344.932 173.699,338.696 
  174.204,345.463 174.71,336.719 175.215,346.529 175.721,345.155 176.226,344.607 176.732,337.941 177.237,340.326 177.743,346.072 178.248,344.421 178.754,343.554 
  179.259,344.751 179.765,346.27 180.27,343.055 180.776,345.836 181.281,336.423 181.787,346.499 182.292,343.038 182.798,339.484 183.303,340.998 183.809,339.919 
  184.314,341.648 184.82,345.464 185.325,339.143 185.831,346.355 186.336,342.795 186.841,346.467 187.347,343.729 187.852,346.588 188.358,340.682 188.863,344.254 
  189.369,344.798 189.874,343.876 190.38,335.137 190.885,345.463 191.391,345.735 191.896,344.143 192.402,343.693 192.907,337.026 193.413,346.078 193.918,346.57 
  194.424,343.771 194.929,345.861 195.435,341.372 195.94,345.408 196.446,346.428 196.951,342.06 197.457,345.852 197.962,346.526 198.468,341.354 198.973,344.277 
  199.479,345.183 199.984,345.676 200.49,345.857 200.995,341.401 201.501,340.235 202.006,345.737 202.512,346.404 203.017,345.285 203.523,343.235 204.028,342.261 
  204.534,345.858 205.039,344.488 205.545,346.379 206.05,346.017 206.556,346.563 207.061,346.107 207.567,344.728 208.072,341.972 208.578,343.577 209.083,342.752 
  209.589,342.724 210.094,346.023 210.6,345.537 211.105,345.114 211.611,345.94 212.116,343.272 212.622,345.173 213.127,342.765 213.633,346.59 214.138,346.478 
  214.644,346.072 215.149,344.379 215.655,346.551 216.16,346.076 216.666,346.485 217.171,346.423 217.677,346.012 218.182,345.623 218.688,345.951 219.193,346.338 
  219.699,344.103 220.204,344.418 220.71,345.92 221.215,346.149 221.721,346.392 222.226,344.393 222.732,342.502 223.237,346.588 223.743,342.463 224.248,346.126 
  224.754,345.15 225.259,346.049 225.765,346.183 226.27,343.664 226.776,346.182 227.281,344.733 227.787,343.127 228.292,344.823 228.798,346.592 229.303,346.334 
  229.809,346.449 230.314,346.589 230.82,345.331 231.325,346.054 231.831,346.099 232.336,344.766 232.841,346.312 233.347,345.562 233.852,343.687 234.358,345.742 
  234.863,346.589 235.369,345.847 235.874,345.679 236.38,346.323 236.885,344.397 237.391,345.969 237.896,346.54 238.402,345.432 238.907,345.362 239.413,346.595 
  239.918,345.011 240.424,344.706 240.929,344.417 241.435,345.883 241.94,346.078 242.446,344.384 242.951,346.136 243.457,346.498 243.962,345.271 244.468,345.783 
  244.973,344.32 245.479,345.673 245.984,345.866 246.49,345.815 246.995,346.063 247.501,346.003 248.006,345.799 248.512,345.501 249.017,346.586 249.523,346.555 
  250.028,346.582 250.534,345.677 251.039,345.759 251.545,346.3 252.05,345.896 252.556,345.637 253.061,346.412 253.567,346.253 254.072,346.277 254.578,346.32 
  255.083,346.465 255.589,345.736 256.094,345.423 256.6,345.406 257.105,345.759 257.611,346.454 258.116,346.418 258.622,346.196 259.127,346.595 259.633,346.034 
  260.138,346.575 260.644,346.482 261.149,346.407 261.655,346.441 262.16,346.518 262.666,346.501 263.171,346.169 263.677,345.423 264.182,345.523 264.688,346.455 
  265.193,346.553 265.699,346.175 266.204,346.122 266.71,345.923 267.215,344.368 267.721,346.34 268.226,346.414 268.732,346.512 269.237,346.162 269.743,346.134 
  270.248,345.846 270.754,345.742 271.259,345.962 271.765,346.357 272.27,345.089 272.776,346.215 273.281,346.594 273.787,345.863 274.292,345.967 274.798,346.502 
  275.303,346.58 275.809,346.547 276.314,346.599 276.82,345.523 277.325,345.913 277.831,346.377 278.336,346.564 278.841,346.446 279.347,346.325 279.852,346.595 
  280.358,345.731 280.863,346.486 281.369,346.263 281.874,345.975 282.38,346.285 282.885,346.566 283.391,346.208 283.896,346.596 284.402,346.589 284.907,346.253 
  285.413,346.54 285.918,346.597 286.424,346.43 286.929,346.216 287.435,346.259 287.94,346.091 288.446,346.497 288.951,346.235 289.457,346.583 289.962,346.558 
  290.468,346.43 290.973,346.395 291.479,346.163 291.984,346.418 292.49,346.187 292.995,345.847 293.501,346.549 294.006,346.592 294.512,346.447 295.017,346.362 
  295.523,346.103 296.028,346.519 296.534,346.356 297.039,346.135 297.545,346.522 298.05,346.598 298.556,346.443 299.061,346.543 299.567,346.466 300.072,346.377 
  300.578,346.417 301.083,346.598 301.589,346.548 302.094,346.246 302.6,346.598 303.105,346.059 303.611,346.491 304.116,346.511 304.622,346.569 305.127,346.524 
  305.633,346.512 306.138,346.313 306.644,346.585 307.149,346.563 307.655,346.587 308.16,346.379 308.666,346.593 309.171,346.488 309.677,346.586 310.182,346.074 
  310.688,346.319 311.193,346.375 311.699,346.566 312.204,346.519 312.71,346.482 313.215,346.533 313.721,346.312 314.226,346.598 314.732,346.598 315.237,346.385 
  315.743,346.592 316.248,346.572 316.754,346.578 317.259,346.317 317.765,346.463 318.27,346.56 318.776,346.582 319.281,346.583 319.787,346.577 320.292,346.329 
  320.798,346.46 321.303,346.567 321.809,346.419 322.314,346.337 322.82,346.585 323.325,346.535 323.831,346.427 324.336,346.594 324.841,346.551 325.347,346.598 
  325.852,346.538 326.358,346.59 326.863,346.47 327.369,346.538 327.874,346.492 328.38,346.472 328.885,346.566 329.391,346.503 329.896,346.503 330.402,346.411 
  330.907,346.578 331.413,346.55 331.918,346.594 332.424,346.528 332.929,346.315 333.435,346.412 333.94,346.515 334.446,346.517 334.951,346.527 335.457,346.164 
  335.962,346.55 336.468,346.598 336.973,346.549 337.479,346.556 337.984,346.334 338.49,346.434 338.995,346.597 339.501,346.525 340.006,346.583 340.512,346.558 
  341.017,346.385 341.523,346.596 342.028,346.489 342.534,346.462 343.039,346.584 343.545,346.532 344.05,346.598 344.556,346.547 345.061,346.489 345.567,346.591 
  346.072,346.561 346.578,346.589 347.083,346.563 347.589,346.406 348.094,346.546 348.6,346.557 349.105,346.596 349.611,346.587 350.116,346.386 350.622,346.367 
  351.127,346.59 351.633,346.565 352.138,346.572 352.644,346.536 353.149,346.599 353.655,346.53 354.16,346.598 354.666,346.594 355.171,346.594 355.677,346.599 
  356.182,346.599 356.688,346.599 357.193,346.557 357.699,346.545 358.204,346.598 358.71,346.54 359.215,346.589 359.721,346.572 360.226,346.598 360.732,346.558 
  361.237,346.556 361.743,346.545 362.248,346.599 362.754,346.593 363.259,346.587 363.765,346.593 364.27,346.578 364.776,346.599 365.281,346.547 365.787,346.556 
  366.292,346.592 366.798,346.536 367.303,346.54 367.809,346.599 368.314,346.516 368.82,346.557 369.325,346.299 369.831,346.563 370.336,346.583 370.841,346.595 
  371.347,346.499 371.852,346.598 372.358,346.594 372.863,346.584 373.369,346.598 373.874,346.597 374.38,346.599 374.885,346.483 375.391,346.599 375.896,346.464 
  376.402,346.598 376.907,346.592 377.413,346.438 377.918,346.599 378.424,346.573 378.929,346.479 379.435,346.596 379.94,346.573 380.446,346.594 380.951,346.567 
  381.457,346.571 381.962,346.598 382.468,346.592 382.973,346.599 383.479,346.569 383.984,346.576 384.49,346.592 384.995,346.593 385.501,346.549 386.006,346.587 
  386.512,346.592 387.017,346.564 387.523,346.597 388.028,346.597 388.534,346.377 389.039,346.599 389.545,346.577 390.05,346.592 390.556,346.505 391.061,346.594 
  391.567,346.593 392.072,346.56 392.578,346.599 393.083,346.594 393.589,346.598 394.094,346.598 394.6,346.589 395.105,346.599 395.611,346.549 396.116,346.487 
  396.622,346.566 397.127,346.531 397.633,346.582 398.138,346.56 398.644,346.57 399.149,346.588 399.655,346.596 400.16,346.598 400.666,346.587 401.171,346.587 
  401.677,346.576 402.182,346.586 402.688,346.593 403.193,346.582 403.699,346.597 404.204,346.559 404.71,346.591 405.215,346.547 405.721,346.583 406.226,346.482 
  406.732,346.584 407.237,346.56 407.743,346.599 408.248,346.563 408.754,346.567 409.259,346.599 409.765,346.583 410.27,346.592 410.776,346.575 411.281,346.527 
  411.787,346.57 412.292,346.589 412.798,346.597 413.303,346.589 413.809,346.457 414.314,346.598 414.82,346.599 415.325,346.468 415.831,346.589 416.336,346.598 
  416.841,346.598 417.347,346.589 417.852,346.556 418.358,346.576 418.863,346.588 419.369,346.599 419.874,346.573 420.38,346.599 420.885,346.569 421.391,346.582 
  421.896,346.551 422.402,346.441 422.907,346.44 423.413,346.554 423.918,346.597 424.424,346.588 424.929,346.575 425.435,346.595 425.94,346.546 426.446,346.592 
  426.951,346.552 427.457,346.589 427.962,346.517 428.468,346.599 428.973,346.527 429.479,346.577 429.984,346.592 430.49,346.518 430.995,346.595 431.501,346.494 
  432.006,346.596 432.512,346.588 433.017,346.598 433.523,346.587 434.028,346.588 434.534,346.588 435.039,346.565 435.545,346.599 436.05,346.592 436.556,346.596 
  437.061,346.584 437.567,346.589 438.072,346.599 438.578,346.541 439.083,346.523 439.589,346.558 440.094,346.594 440.6,346.581 441.105,346.597 441.611,346.594 
  442.116,346.556 442.622,346.592 443.127,346.596 443.633,346.594 444.138,346.598 444.644,346.594 445.149,346.591 445.655,346.579 446.16,346.57 446.666,346.483 
  447.171,346.557 447.677,346.553 448.182,346.596 448.688,346.559 449.193,346.465 449.699,346.598 450.204,346.599 450.71,346.59 451.215,346.598 451.721,346.571 
  452.226,346.517 452.732,346.595 453.237,346.599 453.743,346.597 454.248,346.596 454.754,346.431 455.259,346.594 455.765,346.501 456.27,346.552 456.776,346.59 
  457.281,346.575 457.787,346.582 458.292,346.567 458.798,346.596 459.303,346.537 459.809,346.599 460.314,346.559 460.82,346.596 461.325,346.598 461.831,346.513 
  462.336,346.599 462.841,346.593 463.347,346.593 463.852,346.583 464.358,346.591 464.863,346.599 465.369,346.594 465.874,346.575 466.38,346.559 466.885,346.594 
  467.391,346.583 467.896,346.589 468.402,346.597 468.907,346.597 469.413,346.588 469.918,346.589 470.424,346.594 470.929,346.518 471.435,346.596 471.94,346.58 
  472.446,346.597 472.951,346.486 473.457,346.596 473.962,346.595 474.468,346.595 474.973,346.588 475.479,346.597 475.984,346.596 476.49,346.572 476.995,346.581 
  477.501,346.56 478.006,346.599 478.512,346.599 479.017,346.517 479.523,346.573 480.028,346.597 480.534,346.599 481.039,346.599 481.545,346.596 482.05,346.521 
  482.556,346.584 483.061,346.594 483.567,346.594 484.072,346.569 484.578,346.592 485.083,346.581 485.589,346.527 486.094,346.509 486.6,346.595 487.105,346.597 
  487.611,346.586 488.116,346.582 488.622,346.551 489.127,346.575 489.633,346.599 490.138,346.563 490.644,346.576 491.149,346.598 491.655,346.581 492.16,346.553 
  492.666,346.581 493.171,346.573 493.677,346.576 494.182,346.599 494.688,346.592 495.193,346.583 495.699,346.598 496.204,346.599 496.71,346.588 497.215,346.599 
  497.721,346.599 498.226,346.582 498.732,346.589 499.237,346.555 499.743,346.597 500.248,346.569 500.754,346.529 501.259,346.506 501.765,346.583 502.27,346.597 
  502.776,346.579 503.281,346.546 503.787,346.592 504.292,346.572 504.798,346.594 505.303,346.596 505.809,346.598 506.314,346.589 506.82,346.538 507.325,346.567 
  507.831,346.55 508.336,346.585 508.842,346.59 509.347,346.599 509.852,346.598 510.358,346.541 510.863,346.599 511.369,346.573 511.874,346.567 512.38,346.544 
  512.885,346.582 513.391,346.591 513.896,346.583 514.402,346.584 514.907,346.56 515.413,346.575 515.918,346.53 516.424,346.427 516.929,346.536 517.435,346.591 
  517.94,346.57 518.446,346.589 518.951,346.588 519.457,346.59 519.962,346.598 520.468,346.57 520.973,346.556 521.479,346.593 521.984,346.561 522.49,346.593 
  522.995,346.476 523.501,346.574 524.006,346.552 524.512,346.593 525.017,346.584 525.523,346.593 526.028,346.557 526.534,346.599 527.039,346.581 527.545,346.599 
  528.05,346.583 528.556,346.581 529.061,346.592 529.567,346.589 530.072,346.581 530.578,346.597 531.083,346.598 531.589,346.583 532.094,346.571 532.6,346.574 
  533.105,346.592 533.611,346.572 534.116,346.598 534.622,346.599 535.127,346.596 535.633,346.557 536.138,346.589 536.644,346.586 537.149,346.599 537.655,346.599 
  538.16,346.545 538.666,346.57 539.171,346.594 539.677,346.571 540.182,346.599 540.688,346.549 541.193,346.575 541.699,346.594 542.204,346.585 542.71,346.575 
  543.215,346.599 543.721,346.599 544.226,346.559 544.732,346.57 545.237,346.469 545.743,346.572 546.248,346.446 546.754,346.583 547.259,346.597 547.765,346.595 
  548.27,346.578 548.776,346.593 549.281,346.597 549.787,346.599 550.292,346.497 550.798,346.589 551.303,346.567 551.809,346.596 552.314,346.574 552.82,346.597 
  553.325,346.585 553.831,346.585 554.336,346.571 554.842,346.593 555.347,346.553 555.852,346.576 556.358,346.558 556.863,346.599 557.369,346.581 557.874,346.596 
  558.38,346.58 558.885,346.595 559.391,346.585 559.896,346.547 560.402,346.587 560.907,346.593 561.413,346.579 561.918,346.596 562.424,346.569 562.929,346.575 
  563.435,346.495 563.94,346.593 564.446,346.597 564.951,346.536 565.457,346.582 565.962,346.58 566.468,346.579 566.973,346.599 567.479,346.579 567.984,346.588 
  568.49,346.594 568.995,346.589 569.501,346.587 570.006,346.599 570.512,346.598 571.017,346.594 571.523,346.598 572.028,346.473 572.534,346.599 573.039,346.594 
  
  "/>
</svg>
