<?xml version="1.0" standalone="no"?>
<!DOCTYPE svg PUBLIC "-//W3C//DTD SVG 20010904//EN"
 "http://www.w3.org/TR/2001/REC-SVG-20010904/DTD/svg10.dtd">
<svg version="1.0" xmlns="http://www.w3.org/2000/svg"
 width="800.000000pt" height="600.000000pt" viewBox="0 0 800.000000 600.000000"
 preserveAspectRatio="xMidYMid meet">

<g transform="translate(0.000000,600.000000) scale(0.100000,-0.100000)"
fill="#000000" stroke="none">
<path d="M0 4675 l0 -1325 66 0 c55 0 71 -4 100 -26 l34 -26 0 1256 0 1256
1160 0 1160 0 0 90 0 90 28 -1 c16 -1 20 -3 10 -6 -15 -4 -18 -16 -18 -79 0
-59 3 -74 15 -74 8 0 15 -4 15 -10 0 -7 183 -10 530 -10 l530 0 0 40 0 40
-530 0 c-347 0 -530 3 -530 10 0 7 183 10 530 10 l530 0 0 40 c0 35 3 40 23
39 12 0 16 -3 10 -6 -7 -2 -13 -20 -13 -39 l0 -34 425 0 425 0 0 34 c0 19 -6
37 -12 39 -7 3 -3 6 10 6 19 1 22 -4 22 -39 l0 -40 475 0 c310 0 475 -3 475
-10 0 -7 -165 -10 -475 -10 l-475 0 0 -40 0 -40 475 0 c310 0 475 3 475 10 0
6 7 10 15 10 12 0 15 15 15 74 0 63 -3 75 -17 79 -11 3 -7 5 10 6 l27 1 0 -90
0 -90 1160 0 1160 0 0 -2520 0 -2520 -3820 0 -3820 0 0 1250 c0 688 -4 1250
-8 1250 -5 0 -19 -11 -32 -25 -21 -22 -32 -25 -92 -25 l-68 0 0 -1320 0 -1320
1445 0 1445 0 0 -290 0 -290 2555 0 2555 0 0 3000 0 3000 -4000 0 -4000 0 0
-1325z m7641 1263 c-2 -28 1 -38 9 -33 6 4 8 15 5 26 -4 11 -2 19 4 19 17 0
13 -36 -5 -51 -11 -9 -14 -22 -10 -41 4 -21 2 -28 -10 -28 -11 0 -14 5 -10 16
4 9 2 22 -3 28 -15 19 -23 56 -12 56 5 0 12 -12 14 -27 3 -16 5 -6 5 22 0 66
1 70 9 61 4 -4 6 -25 4 -48z m-7297 21 c50 -39 24 -129 -38 -129 -28 0 -72 33
-81 60 -7 23 15 59 47 77 32 17 41 16 72 -8z m66 -26 c0 -56 10 -76 36 -71 16
3 20 14 22 61 4 69 22 77 22 10 0 -56 10 -76 36 -71 16 3 20 14 22 61 4 79 22
72 22 -8 0 -59 -2 -66 -24 -76 -17 -8 -29 -8 -46 1 -16 9 -25 9 -33 1 -16 -16
-35 -13 -57 9 -15 15 -20 33 -20 75 0 30 5 55 10 55 6 0 10 -21 10 -47z m294
26 c23 -18 27 -28 24 -62 -2 -33 -9 -44 -30 -56 -34 -20 -77 -6 -97 30 -24 43
13 105 65 108 6 1 23 -9 38 -20z m140 0 c22 -18 26 -28 26 -75 0 -40 -4 -54
-15 -54 -10 0 -15 15 -17 57 -2 48 -6 58 -22 61 -28 6 -46 -25 -46 -75 0 -24
-4 -43 -10 -43 -5 0 -10 24 -10 54 0 47 4 57 26 75 15 12 30 21 34 21 4 0 19
-9 34 -21z m2976 7 c0 -22 -24 -38 -38 -24 -20 20 -14 38 13 38 15 0 25 -6 25
-14z m-2700 -71 c0 -37 -4 -65 -10 -65 -6 0 -10 28 -10 65 0 37 4 65 10 65 6
0 10 -28 10 -65z m80 0 c0 -37 -4 -65 -10 -65 -6 0 -10 28 -10 65 0 37 4 65
10 65 6 0 10 -28 10 -65z m321 48 c13 -16 12 -17 -3 -5 -9 8 -27 12 -40 10
-32 -4 -29 -32 4 -36 36 -4 55 -27 38 -47 -17 -20 -54 -19 -71 3 -13 15 -12
16 3 4 9 -8 27 -12 40 -10 32 4 29 32 -4 36 -36 4 -55 27 -38 47 17 20 54 19
71 -2z m48 -21 c-12 -5 -11 -59 1 -65 6 -3 5 -4 -2 -3 -13 3 -27 61 -20 83 3
9 7 9 17 0 7 -7 9 -13 4 -15z m4104 21 c-20 -4 -23 -11 -25 -56 l-2 -52 -3 52
c-3 44 -7 52 -26 56 -12 2 1 4 28 4 28 0 40 -2 28 -4z m126 -7 c17 -20 10 -77
-11 -90 -14 -8 -21 -6 -35 9 -16 17 -17 18 -1 6 20 -15 48 -8 48 12 0 7 -10
13 -21 13 -29 -1 -47 27 -30 48 17 20 35 20 50 2z m91 -1 c10 -12 10 -19 2
-27 -8 -8 -9 -15 -1 -25 9 -9 8 -17 -1 -28 -16 -20 -34 -19 -51 2 -13 15 -12
15 8 2 18 -11 25 -11 35 -1 11 11 10 16 -4 26 -15 11 -15 13 0 23 14 9 15 13
4 24 -10 11 -16 11 -35 0 -20 -13 -21 -13 -8 2 17 21 35 22 51 2z m124 -7 c8
-14 5 -23 -18 -47 l-28 -29 28 -5 c24 -3 22 -4 -10 -6 l-40 -1 33 34 c21 22
31 41 28 50 -8 19 -28 21 -47 4 -12 -11 -12 -10 0 5 16 21 39 19 54 -5z m85 8
c17 -20 10 -77 -11 -89 -24 -16 -48 8 -48 47 0 49 34 73 59 42z m-4441 -18
c17 -17 15 -43 -4 -59 -31 -26 -70 25 -44 56 15 18 32 19 48 3z m96 -10 c14
-23 -3 -53 -30 -53 -10 0 -22 -9 -26 -20 -3 -12 -6 4 -7 36 -1 54 0 56 25 55
15 -1 32 -9 38 -18z m4409 -56 c16 2 24 12 28 38 l6 35 2 -41 c1 -40 0 -41
-31 -40 -31 1 -33 4 -34 36 l-1 35 4 -33 c4 -28 8 -33 26 -30z m111 59 c3 -4
-6 -6 -19 -3 -33 6 -32 -12 1 -27 14 -6 24 -17 21 -24 -5 -16 -36 -22 -49 -9
-6 6 0 8 16 5 33 -7 34 10 1 25 -25 12 -31 23 -18 35 9 10 41 9 47 -2z m1716
-2115 c0 -3 -5 -17 -10 -31 -7 -18 -7 -33 1 -47 16 -29 5 -33 -43 -13 -24 9
-54 21 -68 27 -24 9 -21 11 40 38 67 29 80 33 80 26z m-966 -3123 c19 -61 20
-62 60 -66 l41 -4 -47 -1 -46 -2 -19 63 c-18 60 -20 62 -58 68 l-40 7 44 -2
45 -1 20 -62z m-6771 3 l13 -38 12 40 c19 63 32 61 30 -5 l-1 -58 -6 45 -6 45
-14 -45 -14 -45 -13 30 c-7 17 -14 37 -15 45 -1 8 -5 -5 -9 -30 l-7 -45 -1 60
c-2 65 9 65 31 1z m231 32 c8 -14 5 -23 -18 -47 l-28 -29 28 -5 c24 -3 22 -4
-10 -6 l-40 -1 33 34 c21 22 31 41 28 50 -8 19 -28 21 -47 4 -12 -11 -12 -10
0 5 16 21 39 19 54 -5z m85 8 c17 -20 10 -77 -11 -89 -24 -16 -48 8 -48 47 0
49 34 73 59 42z m867 -8 c-20 -29 -20 -67 0 -98 l16 -25 -21 24 c-25 28 -27
68 -5 99 8 12 17 22 20 22 3 0 -2 -10 -10 -22z m72 -35 c-2 -58 -2 -58 -5 -10
-3 33 -8 45 -16 40 -7 -4 -6 0 2 10 7 9 15 17 17 17 2 0 3 -26 2 -57z m81 43
c17 -20 10 -77 -11 -89 -24 -16 -48 8 -48 47 0 49 34 73 59 42z m74 -40 l13
-38 12 40 c19 63 32 61 30 -5 l-1 -58 -6 45 -6 45 -14 -45 -14 -45 -13 30 c-7
17 -14 37 -15 45 -1 8 -5 -5 -9 -30 l-7 -45 -1 60 c-2 65 9 65 31 1z m158 37
c13 -16 12 -17 -3 -5 -9 8 -27 12 -40 10 -32 -4 -29 -32 4 -36 36 -4 55 -27
38 -47 -17 -20 -54 -19 -71 3 -13 15 -12 16 3 4 9 -8 27 -12 40 -10 32 4 29
32 -4 36 -36 4 -55 27 -38 47 17 20 54 19 71 -2z m43 -42 c-9 -29 -18 -51 -20
-48 -2 2 3 27 12 56 8 29 17 51 19 49 2 -2 -3 -28 -11 -57z m146 -11 c0 -15
-9 -38 -21 -51 l-21 -24 16 25 c9 13 16 36 16 50 0 14 -7 37 -16 50 l-16 25
21 -24 c12 -13 21 -36 21 -51z m684 54 c36 -36 9 -94 -45 -94 -29 0 -29 1 -29
55 0 54 0 55 29 55 16 0 37 -7 45 -16z m306 -19 c22 0 25 -4 26 -40 l1 -40 -4
38 c-4 33 -8 38 -26 35 -16 -2 -24 -12 -28 -38 -5 -27 -6 -22 -7 25 0 33 3 51
6 40 5 -13 16 -20 32 -20z m118 -22 c-2 -58 -2 -58 -5 -10 -3 33 -8 45 -16 40
-7 -4 -6 0 2 10 7 9 15 17 17 17 2 0 3 -26 2 -57z m81 43 c17 -20 10 -77 -11
-89 -24 -16 -48 8 -48 47 0 49 34 73 59 42z m89 -15 c25 24 29 25 13 6 l-25
-27 30 -33 29 -32 -33 29 c-33 31 -46 29 -55 -9 -3 -11 -4 7 -4 40 0 33 2 45
4 26 l4 -34 37 34z m-359 -9 c-12 -5 -11 -59 1 -65 6 -3 5 -4 -2 -3 -13 3 -27
61 -20 83 3 9 7 9 17 0 7 -7 9 -13 4 -15z m3445 12 c22 -22 20 -31 -2 -11 -33
30 -72 15 -72 -28 0 -43 39 -58 72 -28 22 20 24 11 2 -11 -32 -32 -84 -8 -84
39 0 28 24 55 50 55 10 0 26 -7 34 -16z m86 -34 c24 0 29 5 33 28 2 15 4 0 4
-33 0 -33 -2 -48 -4 -32 -4 22 -9 27 -33 27 -24 0 -29 -5 -33 -27 -2 -16 -4
-1 -4 32 0 33 2 48 4 33 4 -23 9 -28 33 -28z m124 28 c8 -14 5 -23 -18 -47
l-28 -29 28 -5 c24 -3 22 -4 -10 -6 l-40 -1 33 34 c21 22 31 41 28 50 -8 19
-28 21 -47 4 -12 -11 -12 -10 0 5 16 21 39 19 54 -5z m140 6 c36 -36 9 -94
-45 -94 -29 0 -29 1 -29 55 0 54 0 55 29 55 16 0 37 -7 45 -16z m120 0 c22
-22 20 -31 -2 -11 -33 30 -72 15 -72 -28 0 -43 39 -58 72 -28 22 20 24 11 2
-11 -32 -32 -84 -8 -84 39 0 28 24 55 50 55 10 0 26 -7 34 -16z m384 -41 c-2
-58 -2 -58 -5 -10 -3 33 -8 45 -16 40 -7 -4 -6 0 2 10 7 9 15 17 17 17 2 0 3
-26 2 -57z m112 42 c10 -12 10 -19 2 -27 -8 -8 -9 -15 -1 -25 13 -15 -4 -43
-26 -43 -22 0 -39 28 -26 43 8 10 7 17 -1 25 -13 13 6 42 27 42 7 0 18 -7 25
-15z m103 -57 c9 -6 9 -8 0 -8 -7 0 -14 -8 -14 -17 -1 -17 -2 -17 -6 0 -3 10
-14 17 -29 17 -30 0 -30 3 4 48 l27 36 3 -35 c2 -18 9 -37 15 -41z m51 20 l23
-52 18 47 c10 26 22 50 27 53 4 3 -2 -18 -14 -46 -13 -29 -27 -53 -32 -54 -5
0 -19 23 -32 52 -12 28 -21 52 -18 52 3 0 15 -23 28 -52z m-6861 -36 c16 2 24
12 28 38 l6 35 2 -41 c1 -40 0 -41 -31 -40 -31 1 -33 4 -34 36 l-1 35 4 -33
c4 -28 8 -33 26 -30z m111 59 c3 -4 -6 -6 -19 -3 -33 6 -32 -12 1 -27 14 -6
24 -17 21 -24 -5 -16 -36 -22 -49 -9 -6 6 0 8 16 5 33 -7 34 10 1 25 -25 12
-31 23 -18 35 9 10 41 9 47 -2z m1210 0 c3 -4 -6 -6 -19 -3 -33 6 -32 -12 1
-27 14 -6 24 -17 21 -24 -5 -16 -36 -22 -49 -9 -6 6 0 8 16 5 33 -7 34 10 1
25 -25 12 -31 23 -18 35 9 10 41 9 47 -2z m834 -3 c20 -20 14 -28 -19 -28 -20
0 -29 -4 -26 -12 2 -7 16 -13 30 -13 14 1 23 -3 21 -7 -8 -12 -38 -10 -52 4
-22 22 -7 68 23 68 6 0 16 -5 23 -12z m96 -10 c14 -23 -3 -53 -30 -53 -10 0
-22 -9 -26 -20 -3 -12 -6 4 -7 36 -1 54 0 56 25 55 15 -1 32 -9 38 -18z m4029
-15 c-7 -2 -19 -2 -25 0 -7 3 -2 5 12 5 14 0 19 -2 13 -5z m-3670 -200 c-20
-4 -23 -11 -25 -56 l-2 -52 -3 52 c-3 44 -7 52 -26 56 -12 2 1 4 28 4 28 0 40
-2 28 -4z m53 -66 l7 -32 11 32 c6 17 14 35 18 39 5 4 0 -17 -10 -46 -10 -30
-25 -56 -33 -58 -12 -3 -12 -2 0 6 11 8 11 17 -2 56 -9 26 -12 44 -7 41 5 -3
12 -20 16 -38z m128 21 c14 -23 -3 -53 -30 -53 -10 0 -22 -9 -26 -20 -3 -12
-6 4 -7 36 -1 54 0 56 25 55 15 -1 32 -9 38 -18z m84 10 c20 -20 14 -28 -19
-28 -20 0 -29 -4 -26 -12 2 -7 16 -13 30 -13 14 1 23 -3 21 -7 -8 -12 -38 -10
-52 4 -22 22 -7 68 23 68 6 0 16 -5 23 -12z m4307 -79 c31 -32 45 -53 38 -56
-8 -3 -13 -22 -13 -44 0 -37 -2 -39 -30 -39 -25 0 -30 4 -30 25 0 18 -5 25
-20 25 -15 0 -20 -7 -20 -25 0 -21 -5 -25 -30 -25 -28 0 -30 2 -30 40 0 31 -4
40 -17 40 -12 0 0 17 37 55 30 30 57 55 60 55 3 0 28 -23 55 -51z m-1804 -16
c13 -16 12 -17 -3 -5 -9 8 -27 12 -40 10 -32 -4 -29 -32 4 -36 36 -4 55 -27
38 -47 -17 -20 -54 -19 -71 3 -13 15 -12 16 3 4 9 -8 27 -12 40 -10 32 4 29
32 -4 36 -36 4 -55 27 -38 47 17 20 54 19 71 -2z m97 -54 c3 -35 2 -36 -29
-35 -43 1 -49 24 -10 39 39 15 40 31 2 25 -17 -2 -28 0 -25 4 3 5 18 8 32 6
23 -3 27 -8 30 -39z m34 9 l12 -33 13 33 c7 17 15 32 18 32 3 0 -2 -16 -10
-36 -8 -20 -15 -39 -15 -42 0 -11 -10 5 -25 41 -8 20 -13 37 -10 37 3 0 11
-15 17 -32z m126 20 c20 -20 14 -28 -19 -28 -20 0 -29 -4 -26 -12 2 -7 16 -13
30 -13 14 1 23 -3 21 -7 -8 -12 -38 -10 -52 4 -22 22 -7 68 23 68 6 0 16 -5
23 -12z m-2698 -138 l0 -100 -220 0 -220 0 0 100 0 100 220 0 220 0 0 -100z"/>
<path d="M266 5931 c-37 -41 14 -97 60 -66 28 18 31 46 8 69 -21 21 -47 20
-68 -3z"/>
<path d="M625 5926 c-19 -29 -8 -61 26 -71 45 -15 82 62 40 85 -31 16 -49 12
-66 -14z"/>
<path d="M5754 5925 c-4 -9 -2 -21 4 -27 15 -15 44 -1 40 19 -4 23 -36 29 -44
8z"/>
<path d="M6054 5927 c-3 -9 -4 -28 -2 -44 2 -20 8 -28 23 -28 17 0 20 7 20 40
0 30 -4 41 -18 43 -9 2 -20 -3 -23 -11z"/>
<path d="M1614 5906 c-9 -24 4 -48 23 -44 12 2 18 12 18 28 0 29 -32 41 -41
16z"/>
<path d="M1704 5906 c-9 -24 4 -48 23 -44 12 2 18 12 18 28 0 29 -32 41 -41
16z"/>
<path d="M524 707 c-3 -9 -4 -28 -2 -44 2 -20 8 -28 23 -28 17 0 20 7 20 40 0
30 -4 41 -18 43 -9 2 -20 -3 -23 -11z"/>
<path d="M1544 707 c-3 -9 -4 -28 -2 -44 2 -20 8 -28 23 -28 17 0 20 7 20 40
0 30 -4 41 -18 43 -9 2 -20 -3 -23 -11z"/>
<path d="M2630 675 c0 -40 2 -45 23 -45 29 0 47 18 47 45 0 27 -18 45 -47 45
-21 0 -23 -5 -23 -45z"/>
<path d="M3154 707 c-3 -9 -4 -28 -2 -44 2 -20 8 -28 23 -28 17 0 20 7 20 40
0 30 -4 41 -18 43 -9 2 -20 -3 -23 -11z"/>
<path d="M6660 665 c0 -40 2 -45 23 -45 29 0 47 18 47 45 0 27 -18 45 -47 45
-21 0 -23 -5 -23 -45z"/>
<path d="M7295 700 c-4 -7 -3 -16 3 -22 14 -14 45 -2 40 15 -6 16 -34 21 -43
7z"/>
<path d="M7295 650 c-4 -7 -3 -16 3 -22 14 -14 45 -2 40 15 -6 16 -34 21 -43
7z"/>
<path d="M7397 675 c-17 -24 -17 -25 3 -25 15 0 20 6 20 25 0 30 -1 30 -23 0z"/>
<path d="M2745 680 c-4 -6 5 -10 20 -10 15 0 24 4 20 10 -3 6 -12 10 -20 10
-8 0 -17 -4 -20 -10z"/>
<path d="M2834 676 c-9 -24 4 -48 23 -44 12 2 18 12 18 28 0 29 -32 41 -41 16z"/>
<path d="M3374 416 c-9 -24 4 -48 23 -44 12 2 18 12 18 28 0 29 -32 41 -41 16z"/>
<path d="M3465 420 c-4 -6 5 -10 20 -10 15 0 24 4 20 10 -3 6 -12 10 -20 10
-8 0 -17 -4 -20 -10z"/>
<path d="M6063 273 c-7 -2 -13 -9 -13 -15 0 -14 43 -6 48 10 4 12 -12 15 -35
5z"/>
<path d="M6225 300 c-4 -6 5 -10 20 -10 15 0 24 4 20 10 -3 6 -12 10 -20 10
-8 0 -17 -4 -20 -10z"/>
<path d="M3153 175 c0 -33 2 -45 4 -27 2 18 2 45 0 60 -2 15 -4 0 -4 -33z"/>
<path d="M3181 156 l2 -41 6 35 c4 22 12 36 24 38 14 3 17 -4 18 -35 l2 -38 6
35 c9 50 38 53 44 6 l4 -36 -1 37 -1 38 -52 1 -53 1 1 -41z"/>
<path d="M3316 192 c-3 -4 8 -6 25 -4 38 6 37 -10 -2 -25 -39 -15 -33 -38 10
-39 31 -1 32 0 29 35 -3 31 -7 36 -30 39 -14 2 -29 -1 -32 -6z m52 -44 c-5
-16 -48 -24 -48 -10 0 11 17 20 38 21 8 1 12 -5 10 -11z"/>
<path d="M3412 188 c-27 -27 0 -77 34 -64 10 4 14 2 11 -6 -2 -7 -16 -13 -30
-13 -14 1 -23 -3 -21 -7 8 -12 38 -10 52 4 7 7 12 30 12 53 0 35 -3 41 -23 43
-13 1 -29 -4 -35 -10z m43 -28 c0 -16 -6 -26 -18 -28 -19 -4 -32 20 -23 44 9
25 41 13 41 -16z"/>
<path d="M3502 188 c-25 -25 -6 -68 29 -68 10 0 20 4 23 8 2 4 -7 8 -21 7 -14
0 -28 6 -30 13 -3 8 6 12 26 12 17 0 31 4 31 8 0 12 -22 32 -35 32 -6 0 -16
-5 -23 -12z m43 -8 c4 -6 -5 -10 -20 -10 -15 0 -24 4 -20 10 3 6 12 10 20 10
8 0 17 -4 20 -10z"/>
<path d="M3650 5864 c0 -55 -5 -54 425 -54 430 0 425 -1 425 54 l0 26 -425 0
-425 0 0 -26z"/>
<path d="M220 5741 c0 -43 3 -50 23 -54 l22 -4 -22 -2 c-20 -1 -23 -6 -23 -45
0 -38 3 -45 23 -49 l22 -4 -22 -2 c-20 -1 -23 -6 -23 -45 0 -38 3 -45 23 -49
l22 -4 -22 -2 c-20 -1 -23 -6 -23 -45 0 -38 3 -45 23 -49 l22 -4 -22 -2 c-20
-1 -23 -6 -23 -45 0 -44 0 -45 38 -49 l37 -4 -37 -1 c-38 -2 -38 -2 -38 -46 0
-38 3 -45 23 -49 l22 -4 -22 -2 c-20 -1 -23 -6 -23 -45 0 -38 3 -45 23 -49
l22 -4 -22 -2 c-20 -1 -23 -6 -23 -45 0 -38 3 -45 23 -49 l22 -4 -22 -2 c-20
-1 -23 -6 -23 -45 0 -38 3 -45 23 -49 l22 -4 -22 -2 c-20 -1 -23 -6 -23 -45 0
-44 0 -45 38 -49 l37 -4 -37 -1 c-38 -2 -38 -2 -38 -46 0 -38 3 -45 23 -49
l22 -4 -22 -2 c-20 -1 -23 -6 -23 -45 0 -38 3 -45 23 -49 l22 -4 -22 -2 c-20
-1 -23 -6 -23 -45 0 -38 3 -45 23 -49 l22 -4 -22 -2 c-20 -1 -23 -6 -23 -45 0
-38 3 -45 23 -49 l22 -4 -22 -2 c-27 -1 -32 -41 -8 -61 9 -7 15 -8 15 -2 0 11
25 10 36 -1 11 -11 104 -8 104 3 0 11 32 9 64 -5 11 -5 21 -3 26 5 5 8 9 9 14
1 10 -16 206 -15 206 1 0 9 3 9 12 0 16 -16 85 -15 91 1 4 10 7 10 18 0 17
-17 146 -18 151 -2 3 8 11 8 27 -2 19 -11 25 -11 28 -1 4 10 8 10 20 1 11 -10
16 -10 23 0 5 9 10 10 14 2 10 -15 96 -14 96 1 0 9 3 9 12 0 14 -14 68 -16 68
-2 0 6 9 10 19 10 11 0 23 -4 26 -10 9 -14 45 -12 45 2 0 9 3 9 12 0 8 -8 50
-12 125 -12 81 0 113 3 113 12 0 9 3 9 12 0 16 -16 75 -15 81 1 3 9 9 9 28 0
13 -7 35 -13 49 -15 l25 -3 3 -417 c2 -362 4 -418 17 -418 8 0 15 5 15 10 0 6
16 10 35 10 19 0 35 5 35 10 0 6 6 10 13 10 19 0 27 162 27 519 0 152 4 282 9
289 5 9 24 12 52 10 l44 -3 3 -401 2 -401 30 5 30 4 0 293 c0 161 3 300 6 309
4 9 18 16 34 16 33 0 40 14 40 85 0 74 10 118 24 106 6 -5 27 -11 46 -13 l35
-3 3 -95 c2 -82 5 -97 22 -108 15 -9 20 -9 20 -1 0 7 8 4 20 -6 19 -17 20 -31
20 -322 l0 -303 25 0 25 0 1 143 c2 302 14 706 22 713 4 4 17 2 30 -4 12 -6
31 -12 42 -14 20 -3 20 -12 23 -411 2 -353 4 -407 17 -407 8 0 15 5 15 10 0 6
22 10 49 10 l48 0 7 393 c4 215 10 400 12 410 8 25 80 24 94 -2 6 -13 10 -160
10 -410 0 -341 2 -391 15 -391 8 0 15 5 15 10 0 6 7 10 15 10 13 0 15 41 15
311 l0 311 34 -4 c40 -4 46 6 46 88 0 73 10 117 24 105 6 -5 27 -11 46 -13
l35 -3 3 -104 c3 -111 10 -131 48 -131 12 0 26 -4 29 -10 3 -5 17 -10 30 -10
31 0 33 12 37 157 3 115 8 134 30 115 7 -5 27 -12 43 -14 l30 -3 3 -137 3
-138 63 0 c63 0 64 0 70 31 3 17 6 78 6 134 0 57 3 110 6 119 7 18 26 20 52 7
9 -5 25 -12 35 -15 15 -5 17 -21 17 -150 l0 -145 38 -3 37 -3 5 -320 c3 -176
6 -314 8 -307 1 6 10 12 21 12 17 0 18 20 23 453 3 248 9 460 13 470 9 21 32
22 73 1 l32 -15 0 -445 c0 -289 3 -444 10 -444 6 0 10 5 10 10 0 6 18 10 41
10 22 0 46 6 53 13 10 10 14 109 18 432 3 231 9 428 13 438 10 23 67 23 88 -1
14 -15 17 -40 17 -118 l0 -99 40 -18 40 -17 0 -315 c0 -203 4 -315 10 -315 6
0 10 5 10 10 0 6 7 10 15 10 13 0 15 42 15 318 0 176 3 374 7 441 l6 122 51
-3 51 -3 3 -424 c1 -234 6 -427 11 -430 5 -4 34 -4 65 -3 l56 4 1 346 c1 346
8 514 21 528 4 4 13 2 20 -4 7 -5 27 -12 43 -14 l30 -3 3 -427 2 -428 30 0 30
0 0 308 c0 177 4 313 10 322 8 12 13 13 30 3 11 -7 22 -13 25 -13 3 0 5 26 6
58 0 75 13 189 22 198 4 4 17 2 30 -4 12 -6 31 -12 42 -14 19 -3 20 -12 23
-141 l3 -137 34 0 c18 0 37 -4 40 -10 3 -5 17 -10 31 -10 23 0 24 3 24 68 0
38 3 110 6 160 6 76 10 92 23 92 10 0 21 -4 26 -9 6 -5 21 -11 35 -13 l25 -3
3 -157 c2 -148 4 -158 22 -158 10 0 22 -4 25 -10 3 -5 24 -10 46 -10 l39 0 0
103 c0 170 10 257 29 257 10 0 21 -4 26 -9 6 -5 21 -11 35 -13 l25 -3 3 -177
c1 -108 6 -178 12 -178 6 0 10 5 10 10 0 6 11 3 25 -6 l25 -16 0 -308 0 -308
23 6 c12 3 25 10 29 16 4 6 8 203 8 437 0 486 4 549 32 549 10 0 26 -4 36 -9
9 -5 25 -12 35 -15 16 -5 17 -36 17 -471 l0 -465 30 0 c17 0 30 5 30 10 0 6
16 10 35 10 l35 0 0 424 c0 233 3 444 6 470 6 43 9 46 36 46 16 0 40 -7 53
-16 l25 -16 0 -444 0 -444 35 0 c19 0 35 5 35 10 0 6 14 10 30 10 l30 0 0 404
c0 222 3 424 6 450 l7 47 51 -3 51 -3 3 -447 2 -448 65 0 65 0 0 419 c0 230 3
433 6 450 6 29 9 31 50 31 58 0 64 -14 64 -147 l0 -108 33 -16 32 -16 3 -316
2 -317 30 0 30 0 0 429 c0 236 3 443 6 460 6 29 9 31 50 31 38 0 44 3 44 21 0
19 3 17 31 -11 23 -23 34 -28 40 -19 6 10 11 10 21 1 11 -8 151 -12 516 -13
296 0 504 -4 507 -10 4 -5 44 -9 91 -9 66 0 84 3 84 14 0 8 -10 17 -22 19
l-23 4 23 2 c19 1 22 6 22 45 0 38 -3 45 -22 49 l-23 4 23 2 c19 1 22 6 22 45
0 38 -3 45 -22 49 l-23 4 23 2 c19 1 22 6 22 45 0 38 -3 45 -22 49 l-23 4 23
2 c19 1 22 6 22 45 0 44 0 45 -37 49 l-38 4 38 1 c37 2 37 2 37 46 0 38 -3 45
-22 49 l-23 4 23 2 c19 1 22 6 22 45 0 38 -3 45 -22 49 l-23 4 23 2 c19 1 22
6 22 45 0 38 -3 45 -23 49 l-22 4 23 2 c19 1 22 6 22 45 0 38 -3 45 -22 49
l-23 4 23 2 c19 1 22 6 22 45 0 44 0 45 -37 49 l-38 4 38 1 c37 2 37 2 37 46
0 38 -3 45 -22 49 l-23 4 23 2 c19 1 22 6 22 45 0 38 -3 45 -22 49 l-23 4 23
2 c19 1 22 6 22 45 0 38 -3 45 -22 49 l-23 4 23 2 c19 1 22 6 22 45 0 38 -3
45 -22 49 l-23 4 23 2 c20 1 22 6 22 51 l0 50 -44 0 c-38 0 -45 -3 -49 -22
l-4 -23 -2 23 c-1 19 -6 22 -45 22 -38 0 -45 -3 -49 -22 l-4 -23 -2 23 c-1 19
-6 22 -45 22 -44 0 -45 0 -49 -37 l-4 -38 -1 38 c-2 37 -2 37 -46 37 -38 0
-45 -3 -49 -22 l-4 -23 -2 23 c-1 19 -6 22 -45 22 -38 0 -45 -3 -49 -22 l-4
-23 -2 23 c-1 19 -6 22 -45 22 -38 0 -45 -3 -49 -22 l-4 -23 -2 23 c-1 19 -6
22 -45 22 -38 0 -45 -3 -49 -22 l-4 -23 -2 23 c-1 19 -6 22 -45 22 -44 0 -45
0 -49 -37 l-4 -38 -1 38 c-2 37 -2 37 -46 37 -38 0 -45 -3 -49 -22 l-4 -23 -2
23 c-1 19 -6 22 -45 22 -38 0 -45 -3 -49 -22 l-4 -23 -2 23 c-1 19 -6 22 -45
22 -38 0 -45 -3 -49 -22 l-4 -23 -2 23 c-1 19 -6 22 -45 22 -38 0 -45 -3 -49
-22 l-4 -23 -2 23 c-1 19 -6 22 -45 22 -44 0 -45 0 -49 -37 l-4 -38 -1 38 c-2
37 -2 37 -46 37 -38 0 -45 -3 -49 -22 l-4 -23 -2 23 c-1 19 -6 22 -45 22 -38
0 -45 -3 -49 -22 l-4 -23 -2 23 c-1 19 -6 22 -45 22 -38 0 -45 -3 -49 -22 l-4
-23 -2 23 c-1 19 -6 22 -45 22 -38 0 -45 -3 -49 -22 l-4 -23 -2 23 c-1 19 -6
22 -45 22 -44 0 -45 0 -49 -37 l-4 -38 -1 38 c-2 37 -2 37 -46 37 -38 0 -45
-3 -49 -22 l-4 -23 -2 23 c-1 19 -6 22 -45 22 -38 0 -45 -3 -49 -22 l-4 -23
-2 23 c-1 19 -6 22 -45 22 -38 0 -45 -3 -49 -22 l-4 -23 -2 23 c-1 19 -6 22
-45 22 -38 0 -45 -3 -49 -22 l-4 -23 -2 23 c-1 19 -6 22 -45 22 -44 0 -45 0
-49 -37 l-4 -38 -1 38 c-2 37 -2 37 -46 37 -38 0 -45 -3 -49 -22 l-4 -23 -2
23 c-1 19 -6 22 -45 22 -38 0 -45 -3 -49 -22 l-4 -23 -2 23 c-1 19 -6 22 -45
22 -38 0 -45 -3 -49 -22 l-4 -23 -2 23 c-1 19 -6 22 -45 22 -38 0 -45 -3 -49
-22 l-4 -23 -2 23 c-1 19 -6 22 -45 22 -44 0 -45 0 -49 -37 l-4 -38 -1 38 c-2
37 -2 37 -46 37 -38 0 -45 -3 -49 -22 l-4 -23 -2 23 c-1 19 -6 22 -45 22 -38
0 -45 -3 -49 -22 l-4 -23 -2 23 c-1 19 -6 22 -45 22 -38 0 -45 -3 -49 -22 l-4
-23 -2 23 c-1 19 -6 22 -45 22 -38 0 -45 -3 -49 -22 l-4 -23 -2 23 c-1 19 -6
22 -45 22 -44 0 -45 0 -49 -37 l-4 -38 -1 38 c-2 37 -2 37 -46 37 -38 0 -45
-3 -49 -22 l-4 -23 -2 23 c-1 19 -6 22 -45 22 -38 0 -45 -3 -49 -22 l-4 -23
-2 23 c-1 19 -6 22 -45 22 -38 0 -45 -3 -49 -22 l-4 -23 -2 23 c-1 19 -6 22
-45 22 -38 0 -45 -3 -49 -22 l-4 -23 -2 23 c-1 19 -6 22 -45 22 -44 0 -45 0
-49 -37 l-4 -38 -1 38 c-2 37 -2 37 -46 37 -38 0 -45 -3 -49 -22 l-4 -23 -2
23 c-1 19 -6 22 -45 22 -38 0 -45 -3 -49 -22 l-4 -23 -2 23 c-1 19 -6 22 -45
22 -38 0 -45 -3 -49 -22 l-4 -23 -2 23 c-1 19 -6 22 -45 22 -38 0 -45 -3 -49
-22 l-4 -23 -2 23 c-1 19 -6 22 -45 22 -44 0 -45 0 -49 -37 l-4 -38 -1 38 c-2
37 -2 37 -46 37 -38 0 -45 -3 -49 -22 l-4 -23 -2 23 c-1 19 -6 22 -45 22 -38
0 -45 -3 -49 -22 l-4 -23 -2 23 c-1 19 -6 22 -45 22 -38 0 -45 -3 -49 -22 l-4
-23 -2 23 c-1 19 -6 22 -45 22 -38 0 -45 -3 -49 -22 l-4 -23 -2 23 c-1 19 -6
22 -45 22 -44 0 -45 0 -49 -37 l-4 -38 -1 38 c-2 37 -2 37 -46 37 -38 0 -45
-3 -49 -22 l-4 -23 -2 23 c-1 19 -6 22 -45 22 -38 0 -45 -3 -49 -22 l-4 -23
-2 23 c-1 19 -6 22 -45 22 -38 0 -45 -3 -49 -22 l-4 -23 -2 23 c-1 19 -6 22
-45 22 -38 0 -45 -3 -49 -22 l-4 -23 -2 23 c-1 19 -6 22 -45 22 -44 0 -45 0
-49 -37 l-4 -38 -1 38 c-2 37 -2 37 -46 37 -38 0 -45 -3 -49 -22 l-4 -23 -2
23 c-1 19 -6 22 -45 22 -38 0 -45 -3 -49 -22 l-4 -23 -2 23 c-1 19 -6 22 -45
22 -38 0 -45 -3 -49 -22 l-4 -23 -2 23 c-1 19 -6 22 -45 22 -38 0 -45 -3 -49
-22 l-4 -23 -2 23 c-1 19 -6 22 -45 22 -44 0 -45 0 -49 -37 l-4 -38 -1 38 c-2
37 -2 37 -46 37 -38 0 -45 -3 -49 -22 l-4 -23 -2 23 c-1 19 -6 22 -45 22 -38
0 -45 -3 -49 -22 l-4 -23 -2 23 c-1 18 -7 22 -36 22 l-35 0 0 -55 c0 -30 -4
-55 -8 -55 -5 0 -18 -9 -30 -20 l-22 -21 -22 21 c-12 11 -25 20 -30 20 -4 0
-8 11 -8 24 0 13 -3 38 -6 55 -6 29 -9 31 -50 31 -42 0 -43 -1 -47 -37 l-4
-38 -1 38 c-2 37 -2 37 -46 37 -38 0 -45 -3 -49 -22 l-4 -23 -2 23 c-1 19 -6
22 -45 22 -38 0 -45 -3 -49 -22 l-4 -23 -2 23 c-1 19 -6 22 -45 22 -38 0 -45
-3 -49 -22 l-4 -23 -2 23 c-1 19 -6 22 -45 22 -38 0 -45 -3 -49 -22 l-4 -23
-2 23 c-1 19 -6 22 -45 22 -44 0 -45 0 -49 -37 l-4 -38 -1 38 c-2 37 -2 37
-46 37 -38 0 -45 -3 -49 -22 l-4 -23 -2 23 c-1 19 -6 22 -45 22 -38 0 -45 -3
-49 -22 l-4 -23 -2 23 c-1 19 -6 22 -45 22 -38 0 -45 -3 -49 -22 l-4 -23 -2
23 c-1 19 -6 22 -45 22 -38 0 -45 -3 -49 -22 l-4 -23 -2 23 c-1 19 -6 22 -45
22 -44 0 -45 0 -49 -37 l-4 -38 -1 38 c-2 37 -2 37 -46 37 -38 0 -45 -3 -49
-22 l-4 -23 -2 23 c-1 19 -6 22 -45 22 -38 0 -45 -3 -49 -22 l-4 -23 -2 23
c-1 20 -6 22 -51 22 l-50 0 0 -49z m3817 -57 c-3 -3 -12 -4 -19 -1 -8 3 -5 6
6 6 11 1 17 -2 13 -5z m0 -100 c-3 -3 -12 -4 -19 -1 -8 3 -5 6 6 6 11 1 17 -2
13 -5z m0 -100 c-3 -3 -12 -4 -19 -1 -8 3 -5 6 6 6 11 1 17 -2 13 -5z m0 -100
c-3 -3 -12 -4 -19 -1 -8 3 -5 6 6 6 11 1 17 -2 13 -5z m0 -100 c-3 -3 -12 -4
-19 -1 -8 3 -5 6 6 6 11 1 17 -2 13 -5z m0 -100 c-3 -3 -12 -4 -19 -1 -8 3 -5
6 6 6 11 1 17 -2 13 -5z m0 -100 c-3 -3 -12 -4 -19 -1 -8 3 -5 6 6 6 11 1 17
-2 13 -5z m0 -100 c-3 -3 -12 -4 -19 -1 -8 3 -5 6 6 6 11 1 17 -2 13 -5z m0
-100 c-3 -3 -12 -4 -19 -1 -8 3 -5 6 6 6 11 1 17 -2 13 -5z m0 -100 c-3 -3
-12 -4 -19 -1 -8 3 -5 6 6 6 11 1 17 -2 13 -5z m0 -100 c-3 -3 -12 -4 -19 -1
-8 3 -5 6 6 6 11 1 17 -2 13 -5z m0 -100 c-3 -3 -12 -4 -19 -1 -8 3 -5 6 6 6
11 1 17 -2 13 -5z m0 -100 c-3 -3 -12 -4 -19 -1 -8 3 -5 6 6 6 11 1 17 -2 13
-5z m0 -100 c-3 -3 -12 -4 -19 -1 -8 3 -5 6 6 6 11 1 17 -2 13 -5z"/>
<path d="M1640 5740 c0 -42 4 -52 25 -66 23 -15 27 -15 50 0 21 14 25 24 25
66 l0 50 -50 0 -50 0 0 -50z m78 13 c-12 -3 -18 -14 -18 -34 0 -16 -4 -29 -10
-29 -5 0 -10 13 -10 29 0 20 -6 31 -17 34 -10 3 2 5 27 5 25 0 37 -2 28 -5z"/>
<path d="M4947 4300 c-12 -153 -9 -215 11 -233 10 -10 31 -17 45 -17 l27 0 0
155 0 155 -34 0 c-19 0 -36 6 -38 12 -3 7 -8 -25 -11 -72z"/>
<path d="M5196 4290 c-4 -52 -6 -131 -4 -175 l3 -80 30 -3 c17 -2 36 -8 43
-14 9 -8 12 26 12 166 l0 176 -34 0 c-19 0 -36 6 -39 13 -2 6 -7 -31 -11 -83z"/>
<path d="M5447 4330 c-4 -30 -7 -250 -7 -487 l0 -433 25 0 c14 0 25 4 25 10 0
5 3 9 8 9 32 -5 32 -3 32 466 l0 465 -34 0 c-19 0 -36 6 -38 12 -3 7 -8 -12
-11 -42z"/>
<path d="M5696 4343 c-3 -21 -6 -230 -6 -465 0 -374 2 -428 15 -428 8 0 15 5
15 10 0 6 14 10 30 10 l30 0 0 445 0 445 -30 0 c-16 0 -30 5 -30 10 0 6 -4 10
-9 10 -4 0 -11 -17 -15 -37z"/>
<path d="M5946 4343 c-3 -21 -6 -221 -6 -445 l0 -408 45 0 45 0 0 435 c0 428
0 435 -20 435 -11 0 -20 5 -20 10 0 6 -8 10 -19 10 -14 0 -20 -10 -25 -37z"/>
<path d="M6196 4358 c-3 -13 -6 -213 -6 -445 0 -416 0 -423 20 -423 11 0 20 5
20 11 0 8 5 8 15 -1 11 -9 15 -9 15 -1 0 7 5 9 10 6 7 -4 10 140 10 424 l0
431 -25 0 c-14 0 -25 5 -25 10 0 20 -28 9 -34 -12z"/>
<path d="M6446 4358 c-3 -13 -6 -213 -6 -445 l0 -423 44 0 44 0 7 310 8 310
23 0 c12 0 26 -4 29 -10 3 -5 19 -10 35 -10 16 0 32 -4 35 -10 3 -5 19 -10 35
-10 16 0 32 -4 35 -10 3 -5 28 -10 55 -10 27 0 52 -4 55 -10 3 -5 28 -10 54
-10 26 0 51 -4 57 -9 5 -6 50 -11 99 -12 50 -1 96 -6 103 -11 8 -7 12 -7 12 2
0 9 3 10 13 1 9 -7 101 -11 275 -11 152 -1 264 -5 267 -11 4 -5 27 -9 53 -8
38 1 42 2 22 9 -24 8 -24 8 -2 9 19 1 22 6 22 45 0 38 -3 45 -22 49 l-23 4 23
2 c19 1 22 6 22 45 0 38 -3 45 -22 49 l-23 4 23 2 c19 1 22 6 22 45 0 44 0 45
-37 49 l-38 4 38 1 c32 2 37 5 37 27 0 25 0 25 -99 25 -70 0 -101 4 -104 13
-4 10 -6 10 -6 0 -1 -15 -61 -18 -61 -3 0 6 -7 10 -15 10 -8 0 -15 -4 -15 -9
0 -5 -54 -10 -120 -10 -92 -2 -120 1 -120 11 0 9 -3 9 -10 -2 -9 -13 -11 -13
-20 0 -6 10 -10 11 -10 3 0 -7 -7 -13 -15 -13 -8 0 -15 5 -15 10 0 6 -7 10
-15 10 -8 0 -15 -6 -15 -12 0 -10 -3 -9 -9 1 -7 11 -9 11 -14 0 -4 -12 -7 -11
-16 1 -10 13 -11 13 -11 0 0 -12 -2 -13 -9 -1 -7 11 -9 11 -14 0 -4 -10 -6
-10 -6 -1 -1 6 -12 12 -25 12 -13 0 -27 -6 -29 -12 -4 -10 -6 -10 -6 0 -1 9
-61 12 -266 12 -170 0 -265 4 -265 10 0 6 -13 10 -29 10 -21 0 -30 -6 -35 -22z"/>
<path d="M4695 4262 c-9 -125 -2 -148 49 -154 l36 -4 0 127 0 127 -39 4 -39 3
-7 -103z"/>
<path d="M3458 4354 c-3 -5 -7 -68 -9 -141 -3 -145 2 -163 52 -163 l29 0 0
145 0 145 -29 0 c-16 0 -31 5 -33 12 -3 7 -7 8 -10 2z"/>
<path d="M3704 4349 c-4 -7 -9 -216 -12 -465 -4 -416 -3 -454 12 -454 9 0 16
5 16 10 0 6 14 10 30 10 l30 0 0 445 0 445 -25 0 c-14 0 -25 5 -25 10 0 14
-17 13 -26 -1z"/>
<path d="M3954 4348 c-4 -6 -9 -202 -12 -435 l-5 -423 47 0 46 0 0 44 c0 26
-5 46 -12 49 -10 4 -10 6 0 6 7 1 12 17 12 45 0 26 -5 46 -12 49 -10 4 -10 6
0 6 7 1 12 17 12 45 0 26 -5 46 -12 49 -10 4 -10 6 0 6 7 1 12 17 12 45 0 26
-5 46 -12 49 -10 4 -10 6 0 6 7 1 12 17 12 45 0 26 -5 46 -12 49 -10 4 -10 6
0 6 7 1 12 17 12 45 0 26 -5 46 -12 49 -10 4 -10 6 0 6 7 1 12 17 12 45 0 26
-5 46 -12 49 -10 4 -10 6 0 6 7 1 12 17 12 45 0 26 -5 46 -12 49 -10 4 -10 6
0 6 18 1 15 51 -3 51 -8 0 -15 5 -15 10 0 14 -37 13 -46 -2z"/>
<path d="M4197 4248 c-4 -62 -7 -258 -7 -435 l0 -323 45 0 45 0 0 419 c0 231
-3 427 -6 436 -5 13 -8 14 -15 3 -7 -10 -9 -10 -9 0 0 6 -11 12 -23 12 -23 0
-24 -3 -30 -112z"/>
<path d="M4447 4263 c-4 -54 -7 -245 -7 -425 l0 -328 45 0 45 0 0 425 0 425
-38 0 -39 0 -6 -97z"/>
<path d="M2457 4310 c-4 -19 -9 -207 -12 -417 l-7 -383 51 0 51 0 0 405 0 405
-34 0 c-19 0 -36 6 -39 13 -2 6 -7 -4 -10 -23z"/>
<path d="M2707 4333 c-3 -5 -8 -187 -12 -405 l-7 -398 46 0 46 0 0 395 0 395
-25 0 c-14 0 -25 5 -25 10 0 12 -17 13 -23 3z"/>
<path d="M2957 4333 c-4 -3 -7 -43 -7 -88 0 -89 13 -115 58 -115 21 0 22 4 22
105 l0 105 -33 0 c-19 0 -37 -3 -40 -7z"/>
<path d="M3204 4327 c-2 -7 -3 -62 -2 -122 l3 -110 38 -6 37 -6 0 129 0 128
-35 0 c-20 0 -38 -6 -41 -13z"/>
<path d="M1956 4298 c-3 -13 -7 -195 -9 -405 l-4 -383 34 0 c65 0 63 -11 63
409 l0 381 -25 0 c-14 0 -25 5 -25 10 0 20 -30 9 -34 -12z"/>
<path d="M2207 4313 c-4 -3 -7 -39 -7 -78 0 -80 15 -105 63 -105 l27 0 0 95 0
95 -38 0 c-21 0 -42 -3 -45 -7z"/>
<path d="M255 4290 l40 -7 -37 -2 c-38 -1 -38 -1 -38 -45 0 -38 3 -45 23 -49
l22 -4 -22 -2 c-20 -1 -23 -6 -23 -46 0 -39 3 -45 21 -45 11 0 17 -4 14 -10
-4 -6 23 -10 74 -10 54 0 81 4 84 13 4 10 7 10 18 0 15 -15 59 -18 59 -4 0 10
27 8 54 -4 13 -6 21 -5 24 4 3 9 7 9 19 0 11 -10 16 -10 23 0 5 9 10 10 14 2
10 -16 366 -15 366 1 0 9 3 9 12 0 13 -13 48 -16 48 -4 0 12 43 12 58 0 8 -7
16 -8 20 -2 8 11 52 12 70 1 7 -5 12 -3 12 4 0 10 3 10 12 1 15 -15 48 -16 48
-1 0 8 4 8 13 0 9 -7 86 -12 213 -13 l199 -3 3 -317 c1 -201 6 -318 12 -318 6
0 10 5 10 10 0 6 9 10 20 10 11 0 20 5 20 10 0 6 7 10 15 10 13 0 15 53 15
415 l0 415 -44 0 c-38 0 -45 -3 -49 -22 l-4 -23 -2 23 -1 22 -737 -1 c-406 -1
-720 -5 -698 -9z"/>
<path d="M2876 4144 c-3 -9 -6 -145 -6 -304 0 -159 -3 -295 -6 -304 -4 -10
-18 -16 -35 -16 l-29 0 1 -137 c1 -125 2 -135 14 -108 9 19 14 24 15 13 0 -17
30 -27 30 -10 0 4 12 9 27 10 15 1 30 5 34 10 4 4 9 195 11 425 4 398 3 417
-14 417 -10 0 -18 5 -18 10 0 16 -17 12 -24 -6z"/>
<path d="M2127 4133 c-4 -3 -7 -143 -7 -310 0 -296 0 -303 -20 -303 -11 0 -20
-4 -20 -10 0 -5 -7 -10 -15 -10 -13 0 -15 -21 -15 -125 l0 -125 35 0 c31 0 35
3 36 28 1 16 3 20 6 10 3 -11 14 -18 29 -18 l24 0 0 158 c0 86 3 282 7 435 l6
277 -30 0 c-16 0 -33 -3 -36 -7z"/>
<path d="M2947 4030 c-4 -63 -7 -255 -7 -427 0 -305 -3 -359 -21 -331 -7 10
-9 10 -9 1 0 -8 -15 -13 -41 -13 -30 0 -47 -6 -60 -22 -19 -21 -19 -18 -19
130 l0 152 -50 0 -50 0 0 -130 0 -130 -54 0 c-30 0 -58 -4 -61 -10 -3 -5 -13
-10 -21 -10 -11 0 -14 23 -14 130 l0 130 -35 0 c-19 0 -35 -5 -35 -11 0 -6 -7
-9 -15 -5 -13 5 -15 -11 -15 -109 l0 -115 -29 0 c-16 0 -32 -6 -34 -12 -4 -10
-8 -9 -16 2 -7 10 -11 11 -11 3 0 -7 -11 -13 -24 -13 -13 0 -27 -6 -29 -12 -3
-7 -6 191 -6 440 l-1 452 -43 0 -44 0 -6 -262 c-4 -145 -7 -336 -7 -425 0
-164 -5 -207 -21 -181 -7 10 -9 10 -9 1 0 -8 -15 -13 -41 -13 -30 0 -47 -6
-60 -22 -19 -21 -19 -18 -19 130 l0 152 -40 0 c-25 0 -40 -5 -40 -12 0 -9 -4
-8 -10 2 -7 10 -10 -28 -10 -117 l0 -133 -60 0 c-33 0 -60 -4 -60 -10 0 -5 -7
-10 -15 -10 -12 0 -15 20 -15 120 0 73 -4 120 -10 120 -5 0 -10 -4 -10 -10 0
-5 -9 -10 -20 -10 -11 0 -20 -4 -20 -10 0 -5 -9 -10 -20 -10 -20 0 -20 7 -20
320 l0 320 -735 0 -735 0 0 -34 c0 -28 4 -35 23 -39 l22 -4 -22 -2 c-20 -1
-23 -6 -23 -45 0 -38 3 -45 22 -49 l23 -4 -22 -2 c-20 -1 -23 -6 -23 -45 0
-44 0 -45 38 -49 l37 -4 -37 -1 c-38 -2 -38 -2 -38 -46 0 -38 3 -45 22 -49
l23 -4 -22 -2 c-20 -1 -23 -6 -23 -45 0 -38 3 -45 22 -49 l23 -4 -22 -2 c-20
-1 -23 -6 -23 -45 0 -38 3 -45 23 -49 l22 -4 -22 -2 c-20 -1 -23 -6 -23 -45 0
-38 3 -45 22 -49 l23 -4 -22 -2 c-20 -1 -23 -6 -23 -45 0 -44 0 -45 38 -49
l37 -4 -37 -1 c-38 -2 -38 -2 -38 -46 0 -38 3 -45 23 -49 l22 -4 -22 -2 c-20
-1 -23 -6 -23 -45 0 -38 3 -45 23 -49 l22 -4 -22 -2 c-20 -1 -23 -6 -23 -45 0
-38 3 -45 23 -49 l22 -4 -22 -2 c-20 -1 -23 -6 -23 -45 0 -38 3 -45 23 -49
l22 -4 -22 -2 c-20 -1 -23 -6 -23 -45 0 -44 0 -45 38 -49 l37 -4 -37 -1 c-38
-2 -38 -2 -38 -46 0 -38 3 -45 23 -49 l22 -4 -22 -2 c-20 -1 -23 -6 -23 -45 0
-38 3 -45 23 -49 l22 -4 -22 -2 c-20 -1 -23 -6 -23 -45 0 -38 3 -45 23 -49
l22 -4 -22 -2 c-20 -1 -23 -6 -23 -45 0 -38 3 -45 23 -49 l22 -4 -22 -2 c-20
-1 -23 -6 -23 -45 0 -44 0 -45 38 -49 l37 -4 -37 -1 c-38 -2 -38 -2 -38 -46 0
-38 3 -45 23 -49 l22 -4 -22 -2 c-20 -1 -23 -6 -23 -45 0 -38 3 -45 23 -49
l22 -4 -22 -2 c-20 -1 -23 -6 -23 -45 0 -38 3 -45 23 -49 l22 -4 -22 -2 c-20
-1 -23 -6 -23 -45 0 -38 3 -45 23 -49 l22 -4 -22 -2 c-20 -1 -23 -6 -23 -45 0
-44 0 -45 38 -49 l37 -4 -37 -1 c-38 -2 -38 -2 -38 -46 0 -38 3 -45 23 -49
l22 -4 -22 -2 c-20 -1 -23 -6 -23 -45 0 -38 3 -45 23 -49 l22 -4 -22 -2 c-20
-1 -23 -6 -23 -45 0 -38 3 -45 23 -49 l22 -4 -22 -2 c-20 -1 -23 -6 -23 -45 0
-38 3 -45 23 -49 l22 -4 -22 -2 c-20 -1 -23 -6 -23 -45 0 -44 0 -45 38 -49
l37 -4 -37 -1 c-38 -2 -38 -2 -38 -46 0 -38 3 -45 23 -49 l22 -4 -22 -2 c-20
-1 -23 -6 -23 -45 0 -38 3 -45 23 -49 l22 -4 -22 -2 c-20 -1 -23 -6 -23 -45 0
-38 3 -45 23 -49 l22 -4 -22 -2 c-20 -1 -23 -6 -23 -45 0 -38 3 -45 23 -49
l22 -4 -22 -2 c-20 -1 -23 -6 -23 -46 l0 -45 49 0 c43 0 50 3 54 23 l4 22 2
-22 c1 -20 6 -23 45 -23 38 0 45 3 49 23 l4 22 2 -22 c1 -20 6 -23 45 -23 44
0 45 0 49 38 l4 37 1 -37 c2 -38 2 -38 46 -38 38 0 45 3 49 23 l4 22 2 -22 c1
-20 6 -23 45 -23 38 0 45 3 49 23 l4 22 2 -22 c1 -20 6 -23 45 -23 38 0 45 3
49 23 l4 22 2 -22 c1 -20 6 -23 45 -23 38 0 45 3 49 23 l4 22 2 -22 c1 -20 6
-23 45 -23 44 0 45 0 49 38 l4 37 1 -37 c2 -38 2 -38 46 -38 38 0 45 3 49 23
l4 22 2 -22 c1 -20 6 -23 45 -23 38 0 45 3 49 23 l4 22 2 -22 c1 -20 6 -23 45
-23 38 0 45 3 49 23 l4 22 2 -22 c1 -20 6 -23 45 -23 38 0 45 3 49 23 l4 22 2
-22 c1 -20 6 -23 45 -23 44 0 45 0 49 38 l4 37 1 -37 c2 -38 2 -38 46 -38 38
0 45 3 49 23 l4 22 2 -22 c1 -20 6 -23 45 -23 38 0 45 3 49 23 l4 22 2 -22 c1
-20 6 -23 45 -23 38 0 45 3 49 23 l4 22 2 -22 c1 -20 6 -23 45 -23 38 0 45 3
49 23 l4 22 2 -22 c1 -20 6 -23 45 -23 44 0 45 0 49 38 l4 37 1 -37 c2 -38 2
-38 46 -38 38 0 45 3 49 23 l4 22 2 -22 c1 -20 6 -23 45 -23 38 0 45 3 49 23
l4 22 2 -22 c1 -20 6 -23 45 -23 38 0 45 3 49 23 l4 22 2 -22 c1 -20 6 -23 45
-23 38 0 45 3 49 23 l4 22 2 -22 c1 -20 6 -23 45 -23 44 0 45 0 49 38 l4 37 1
-37 c2 -38 2 -38 46 -38 38 0 45 3 49 23 l4 22 2 -22 c1 -20 6 -23 45 -23 38
0 45 3 49 23 l4 22 2 -22 c1 -20 6 -23 45 -23 38 0 45 3 49 23 l4 22 2 -22 c1
-20 6 -23 45 -23 38 0 45 3 49 23 l4 22 2 -22 c1 -20 6 -23 45 -23 44 0 45 0
49 37 l4 38 1 -37 c2 -38 2 -38 46 -38 38 0 45 3 49 23 l4 22 2 -22 c1 -20 6
-23 45 -23 38 0 45 3 49 23 l4 22 2 -22 c1 -20 6 -23 45 -23 38 0 45 3 49 23
l4 22 2 -22 c1 -20 6 -23 45 -23 38 0 45 3 49 23 l4 22 2 -22 c1 -20 6 -23 45
-23 44 0 45 0 49 38 l4 37 1 -37 c2 -38 2 -38 46 -38 38 0 45 3 49 23 l4 22 2
-22 c1 -20 6 -23 45 -23 38 0 45 3 49 23 l4 22 2 -22 c1 -20 6 -23 45 -23 38
0 45 3 49 23 l4 22 2 -22 c1 -20 6 -23 45 -23 38 0 45 3 49 23 l4 22 2 -22 c1
-20 6 -23 45 -23 44 0 45 0 49 38 l4 37 1 -37 c2 -38 2 -38 46 -38 38 0 45 3
49 23 l4 22 2 -22 c1 -20 6 -23 45 -23 38 0 45 3 49 23 l4 22 2 -22 c1 -20 6
-23 45 -23 38 0 45 3 49 23 l4 22 2 -22 c1 -20 6 -23 45 -23 38 0 45 3 49 23
l4 22 2 -22 c1 -20 6 -23 45 -23 44 0 45 0 49 38 l4 37 1 -37 c2 -38 2 -38 46
-38 38 0 45 3 49 23 l4 22 2 -22 c1 -20 6 -23 45 -23 38 0 45 3 49 23 l4 22 2
-22 c1 -20 6 -23 45 -23 38 0 45 3 49 23 l4 22 2 -22 c1 -20 6 -23 45 -23 38
0 45 3 49 23 l4 22 2 -22 c1 -20 6 -23 45 -23 44 0 45 0 49 38 l4 37 1 -37 c2
-38 2 -38 46 -38 38 0 45 3 49 23 l4 22 2 -22 c1 -20 6 -23 45 -23 38 0 45 3
49 23 l4 22 2 -22 c1 -20 6 -23 45 -23 38 0 45 3 49 23 l4 22 2 -22 c1 -20 6
-23 45 -23 38 0 45 3 49 23 l4 22 2 -22 c1 -20 6 -23 45 -23 44 0 45 0 49 38
l4 37 1 -37 c2 -38 2 -38 46 -38 38 0 45 3 49 23 l4 22 2 -22 c1 -20 6 -23 45
-23 38 0 45 3 49 23 l4 22 2 -22 c1 -20 6 -23 45 -23 38 0 45 3 49 23 l4 22 2
-22 c1 -20 6 -23 45 -23 38 0 45 3 49 23 l4 22 2 -22 c1 -20 6 -23 45 -23 44
0 45 0 49 38 l4 37 1 -37 c2 -38 2 -38 46 -38 38 0 45 3 49 23 l4 22 2 -22 c1
-20 6 -23 45 -23 38 0 45 3 49 23 l4 22 2 -22 c1 -20 6 -23 45 -23 38 0 45 3
49 23 l4 22 2 -22 c1 -20 6 -23 45 -23 38 0 45 3 49 23 l4 22 2 -22 c1 -20 6
-23 45 -23 44 0 45 0 49 38 l4 37 1 -37 c2 -38 2 -38 46 -38 38 0 45 3 49 23
l4 22 2 -22 c1 -20 6 -23 45 -23 38 0 45 3 49 23 l4 22 2 -22 c1 -20 6 -23 45
-23 38 0 45 3 49 23 l4 22 2 -22 c1 -20 6 -23 45 -23 38 0 45 3 49 23 l4 22 2
-22 c1 -20 6 -23 45 -23 44 0 45 0 49 37 l4 38 1 -37 c2 -38 2 -38 46 -38 38
0 45 3 49 23 l4 22 2 -22 c1 -20 6 -23 45 -23 38 0 45 3 49 23 l4 22 2 -22 c1
-20 6 -23 45 -23 38 0 45 3 49 23 l4 22 2 -22 c1 -20 6 -23 45 -23 38 0 45 3
49 23 l4 22 2 -22 c1 -20 6 -23 45 -23 44 0 45 0 49 38 l4 37 1 -37 c2 -38 2
-38 46 -38 38 0 45 3 49 23 l4 22 2 -22 c1 -20 6 -23 45 -23 38 0 45 3 49 23
l4 22 2 -22 c1 -20 6 -23 46 -23 l45 0 0 44 c0 38 -3 45 -22 49 l-23 4 23 2
c19 1 22 6 22 45 0 38 -3 45 -22 49 l-23 4 23 2 c19 1 22 6 22 45 0 38 -3 45
-22 49 l-23 4 23 2 c19 1 22 6 22 45 0 38 -3 45 -22 49 l-23 4 23 2 c19 1 22
6 22 45 0 44 0 45 -37 49 l-38 4 38 1 c37 2 37 2 37 46 0 38 -3 45 -22 49
l-23 4 23 2 c19 1 22 6 22 45 0 38 -3 45 -22 49 l-23 4 23 2 c19 1 22 6 22 45
0 38 -3 45 -22 49 l-23 4 23 2 c19 1 22 6 22 45 0 38 -3 45 -22 49 l-23 4 23
2 c19 1 22 6 22 45 0 44 0 45 -37 49 l-38 4 38 1 c37 2 37 2 37 46 0 38 -3 45
-22 49 l-23 4 23 2 c19 1 22 6 22 45 0 38 -3 45 -22 49 l-23 4 23 2 c19 1 22
6 22 45 0 38 -3 45 -22 49 l-23 4 23 2 c19 1 22 6 22 45 0 38 -3 45 -22 49
l-23 4 23 2 c19 1 22 6 22 45 0 44 0 45 -37 49 l-38 4 38 1 c37 2 37 2 37 46
0 38 -3 45 -22 49 l-23 4 23 2 c19 1 22 6 22 45 0 38 -3 45 -22 49 l-23 4 23
2 c19 1 22 6 22 45 0 38 -3 45 -22 49 l-23 4 23 2 c19 1 22 6 22 45 0 38 -3
45 -22 49 l-23 4 23 2 c19 1 22 6 22 45 0 44 0 45 -37 49 l-38 4 38 1 c37 2
37 2 37 46 0 38 -3 45 -22 49 l-23 4 23 2 c19 1 22 6 22 45 0 38 -3 45 -22 49
l-23 4 23 2 c19 1 22 6 22 45 0 38 -3 45 -22 49 l-23 4 23 2 c19 1 22 6 22 45
0 38 -3 45 -22 49 l-23 4 23 2 c19 1 22 6 22 45 0 44 0 45 -37 49 l-38 4 38 1
c37 2 37 2 37 46 0 38 -3 45 -22 49 l-23 4 23 2 c19 1 22 6 22 45 0 38 -3 45
-22 49 l-23 4 23 2 c19 1 22 6 22 45 0 38 -3 45 -22 49 l-23 4 23 2 c19 1 22
6 22 45 0 38 -3 45 -22 49 l-23 4 23 2 c19 1 22 6 22 45 0 44 0 45 -37 49
l-38 4 38 1 c37 2 37 2 37 46 0 38 -3 45 -22 49 l-23 4 23 2 c18 1 22 7 22 36
l0 35 -75 0 c-53 0 -75 4 -75 13 0 8 -4 7 -10 -3 -9 -13 -10 -13 -10 0 0 13
-1 13 -11 0 -8 -11 -12 -12 -16 -2 -3 8 -27 12 -68 12 -41 0 -65 -4 -68 -12
-4 -10 -6 -10 -6 0 -1 9 -45 12 -185 12 -138 0 -186 3 -189 13 -4 10 -6 10 -6
0 -1 -15 -41 -18 -41 -3 0 6 -30 10 -70 10 -40 0 -70 4 -70 10 0 6 -27 10 -60
10 -33 0 -60 4 -60 10 0 6 -18 10 -40 10 -25 0 -40 5 -40 13 0 8 -4 7 -10 -3
-6 -10 -10 -11 -10 -2 0 7 -14 12 -35 12 -19 0 -35 5 -35 10 0 6 -11 10 -25
10 -14 0 -25 5 -25 10 0 6 -6 10 -14 10 -11 0 -15 -57 -21 -307 -6 -230 -11
-310 -20 -320 -11 -10 -15 -10 -19 0 -5 9 -7 9 -12 0 -3 -7 -17 -13 -30 -13
-23 0 -24 -3 -25 -67 -1 -63 -15 -150 -18 -110 -1 20 -46 24 -54 5 -4 -10 -6
-10 -6 0 -1 19 -31 14 -32 -5 0 -15 -2 -15 -9 2 -5 11 -9 14 -9 8 -1 -7 -8
-13 -16 -13 -12 0 -15 18 -15 100 l0 100 -45 0 -45 0 0 -90 0 -90 -29 0 c-20
0 -31 -6 -34 -17 -4 -17 -5 -17 -6 0 -1 18 -51 26 -51 7 0 -5 -7 -10 -15 -10
-9 0 -15 -9 -15 -22 0 -12 -3 -18 -7 -14 -4 4 -6 58 -4 121 l2 115 -45 0 -46
0 -1 -87 c0 -49 -4 -97 -9 -108 -7 -17 -9 -17 -9 -2 -1 13 -10 17 -46 17 -32
0 -45 -4 -45 -14 0 -9 -7 -12 -19 -9 -16 4 -20 -1 -24 -29 -2 -18 -5 22 -5 90
-2 115 -3 122 -22 122 -11 0 -20 -4 -20 -10 0 -5 -11 -10 -25 -10 -24 0 -25
-2 -25 -70 l0 -70 -29 0 c-20 0 -31 -6 -34 -17 -4 -17 -5 -17 -6 0 -1 18 -41
25 -41 7 0 -5 -6 -10 -14 -10 -8 0 -17 -6 -19 -12 -4 -10 -6 -10 -6 0 -1 7 -5
11 -10 7 -6 -3 -7 17 -4 49 8 75 3 83 -46 78 l-41 -4 -1 -47 c0 -46 -17 -107
-18 -68 -1 22 -76 25 -85 2 -3 -8 -12 -12 -21 -9 -8 3 -15 1 -15 -5 0 -6 -4
-11 -10 -11 -6 0 -10 130 -10 370 l0 370 -35 0 c-19 0 -35 5 -35 10 0 6 -4 10
-10 10 -6 0 -10 -127 -10 -360 l0 -360 -29 0 c-20 0 -31 -6 -34 -17 -4 -17 -5
-17 -6 0 -1 18 -21 25 -21 7 0 -5 -11 -10 -24 -10 -13 0 -27 -6 -29 -12 -4
-10 -6 -10 -6 0 -1 7 -4 11 -8 9 -5 -3 -7 168 -5 379 l3 384 -40 0 c-22 0 -42
5 -44 13 -3 6 -6 -159 -7 -368 -1 -209 -5 -389 -10 -400 -7 -17 -9 -17 -9 -2
-1 22 -56 24 -77 2 -8 -8 -21 -12 -29 -9 -9 4 -15 0 -15 -7 0 -11 -3 -11 -10
1 -6 9 -10 172 -10 408 0 431 1 422 -59 422 l-31 0 0 -400 0 -400 -30 0 c-18
0 -30 -5 -30 -13 0 -9 -10 -12 -30 -9 -23 3 -36 -1 -50 -18 -24 -28 -23 -34
-20 128 l2 112 -46 0 -46 0 -1 -97 c0 -54 -4 -107 -9 -118 l-9 -20 0 20 c-1
13 -4 16 -9 8 -4 -6 -29 -13 -55 -14 -26 -2 -47 -6 -47 -11 0 -4 -7 -8 -15 -8
-12 0 -15 19 -15 110 l0 110 -45 0 -45 0 0 -87 c0 -49 -4 -94 -9 -101 -5 -9
-27 -14 -60 -14 -28 1 -51 -3 -51 -9 0 -5 -7 -9 -15 -9 -8 0 -15 5 -15 11 0 5
-4 8 -9 4 -5 -3 -12 -1 -15 4 -4 5 -2 12 4 16 14 9 12 82 -2 88 -10 4 -10 6 0
6 8 1 12 17 12 49 0 34 -3 43 -10 32 -6 -10 -10 -11 -10 -2 0 6 -11 12 -25 12
-14 0 -25 -6 -25 -12 0 -9 -3 -8 -10 2 -6 10 -10 -19 -12 -90 l-3 -104 -52 3
c-33 1 -53 -2 -53 -8 0 -6 -9 -11 -19 -11 -11 0 -22 -6 -24 -12 -3 -7 -6 33
-6 90 -1 95 -2 102 -21 102 -11 0 -20 -4 -20 -10 0 -5 -3 -9 -7 -9 -39 6 -43
-1 -43 -71 l0 -70 -28 0 c-15 0 -33 -5 -40 -12 -9 -9 -12 -9 -12 0 0 7 -7 12
-15 12 -8 0 -15 -4 -15 -10 0 -5 -6 -10 -14 -10 -8 0 -17 -6 -19 -12 -3 -7 -6
-3 -6 10 -1 13 -4 21 -8 19 -5 -3 -7 168 -5 379 l3 384 -45 0 -46 0 -2 -382
-3 -383 -42 3 c-26 2 -43 -1 -43 -7 0 -6 -11 -11 -25 -11 -14 0 -25 -4 -25
-10 0 -5 -4 -10 -10 -10 -7 0 -10 143 -10 410 0 403 0 410 -20 410 -11 0 -20
5 -20 10 0 20 -38 10 -44 -12 -3 -13 -6 -193 -6 -400 l0 -378 -30 0 c-17 0
-30 -5 -30 -12 0 -9 -4 -8 -10 2 -6 10 -10 11 -10 3 0 -7 -10 -13 -23 -13 -31
0 -47 -18 -47 -54 0 -16 -3 -27 -6 -24 -3 3 -5 216 -4 472 l1 466 -35 0 c-19
0 -36 6 -38 12 -3 7 -8 -39 -11 -102z m-1389 -741 l27 -2 -27 -4 c-22 -3 -28
-10 -29 -31 l-2 -27 -4 28 c-3 21 -10 27 -31 28 l-27 2 28 4 c21 3 27 10 28
31 l2 27 4 -27 c3 -22 10 -28 31 -29z m5000 0 l27 -2 -27 -4 c-22 -3 -28 -10
-29 -31 l-2 -27 -4 28 c-3 21 -10 27 -31 28 l-27 2 28 4 c21 3 27 10 28 31 l2
27 4 -27 c3 -22 10 -28 31 -29z m-6231 -11 c-3 -8 -6 -5 -6 6 -1 11 2 17 5 13
3 -3 4 -12 1 -19z m100 0 c-3 -8 -6 -5 -6 6 -1 11 2 17 5 13 3 -3 4 -12 1 -19z
m100 0 c-3 -8 -6 -5 -6 6 -1 11 2 17 5 13 3 -3 4 -12 1 -19z m100 0 c-3 -8 -6
-5 -6 6 -1 11 2 17 5 13 3 -3 4 -12 1 -19z m100 0 c-3 -8 -6 -5 -6 6 -1 11 2
17 5 13 3 -3 4 -12 1 -19z m100 0 c-3 -8 -6 -5 -6 6 -1 11 2 17 5 13 3 -3 4
-12 1 -19z m100 0 c-3 -8 -6 -5 -6 6 -1 11 2 17 5 13 3 -3 4 -12 1 -19z m100
0 c-3 -8 -6 -5 -6 6 -1 11 2 17 5 13 3 -3 4 -12 1 -19z m100 0 c-3 -8 -6 -5
-6 6 -1 11 2 17 5 13 3 -3 4 -12 1 -19z m100 0 c-3 -8 -6 -5 -6 6 -1 11 2 17
5 13 3 -3 4 -12 1 -19z m100 0 c-3 -8 -6 -5 -6 6 -1 11 2 17 5 13 3 -3 4 -12
1 -19z m100 0 c-3 -8 -6 -5 -6 6 -1 11 2 17 5 13 3 -3 4 -12 1 -19z m200 0
c-3 -8 -6 -5 -6 6 -1 11 2 17 5 13 3 -3 4 -12 1 -19z m100 0 c-3 -8 -6 -5 -6
6 -1 11 2 17 5 13 3 -3 4 -12 1 -19z m300 0 c-3 -8 -6 -5 -6 6 -1 11 2 17 5
13 3 -3 4 -12 1 -19z m200 0 c-3 -8 -6 -5 -6 6 -1 11 2 17 5 13 3 -3 4 -12 1
-19z m300 0 c-3 -8 -6 -5 -6 6 -1 11 2 17 5 13 3 -3 4 -12 1 -19z m200 0 c-3
-8 -6 -5 -6 6 -1 11 2 17 5 13 3 -3 4 -12 1 -19z m500 0 c-3 -8 -6 -5 -6 6 -1
11 2 17 5 13 3 -3 4 -12 1 -19z m500 0 c-3 -8 -6 -5 -6 6 -1 11 2 17 5 13 3
-3 4 -12 1 -19z m500 0 c-3 -8 -6 -5 -6 6 -1 11 2 17 5 13 3 -3 4 -12 1 -19z
m500 0 c-3 -8 -6 -5 -6 6 -1 11 2 17 5 13 3 -3 4 -12 1 -19z m500 0 c-3 -8 -6
-5 -6 6 -1 11 2 17 5 13 3 -3 4 -12 1 -19z m500 0 c-3 -8 -6 -5 -6 6 -1 11 2
17 5 13 3 -3 4 -12 1 -19z m500 0 c-3 -8 -6 -5 -6 6 -1 11 2 17 5 13 3 -3 4
-12 1 -19z m400 0 c-3 -8 -6 -5 -6 6 -1 11 2 17 5 13 3 -3 4 -12 1 -19z m100
0 c-3 -8 -6 -5 -6 6 -1 11 2 17 5 13 3 -3 4 -12 1 -19z m100 0 c-3 -8 -6 -5
-6 6 -1 11 2 17 5 13 3 -3 4 -12 1 -19z m100 0 c-3 -8 -6 -5 -6 6 -1 11 2 17
5 13 3 -3 4 -12 1 -19z m100 0 c-3 -8 -6 -5 -6 6 -1 11 2 17 5 13 3 -3 4 -12
1 -19z m100 0 c-3 -8 -6 -5 -6 6 -1 11 2 17 5 13 3 -3 4 -12 1 -19z m100 0
c-3 -8 -6 -5 -6 6 -1 11 2 17 5 13 3 -3 4 -12 1 -19z m100 0 c-3 -8 -6 -5 -6
6 -1 11 2 17 5 13 3 -3 4 -12 1 -19z m100 0 c-3 -8 -6 -5 -6 6 -1 11 2 17 5
13 3 -3 4 -12 1 -19z m100 0 c-3 -8 -6 -5 -6 6 -1 11 2 17 5 13 3 -3 4 -12 1
-19z m100 0 c-3 -8 -6 -5 -6 6 -1 11 2 17 5 13 3 -3 4 -12 1 -19z m100 0 c-3
-8 -6 -5 -6 6 -1 11 2 17 5 13 3 -3 4 -12 1 -19z m-3690 -94 c-3 -3 -12 -4
-19 -1 -8 3 -5 6 6 6 11 1 17 -2 13 -5z m0 -100 c-3 -3 -12 -4 -19 -1 -8 3 -5
6 6 6 11 1 17 -2 13 -5z m0 -100 c-3 -3 -12 -4 -19 -1 -8 3 -5 6 6 6 11 1 17
-2 13 -5z m0 -100 c-3 -3 -12 -4 -19 -1 -8 3 -5 6 6 6 11 1 17 -2 13 -5z m0
-100 c-3 -3 -12 -4 -19 -1 -8 3 -5 6 6 6 11 1 17 -2 13 -5z m0 -100 c-3 -3
-12 -4 -19 -1 -8 3 -5 6 6 6 11 1 17 -2 13 -5z m0 -100 c-3 -3 -12 -4 -19 -1
-8 3 -5 6 6 6 11 1 17 -2 13 -5z m0 -100 c-3 -3 -12 -4 -19 -1 -8 3 -5 6 6 6
11 1 17 -2 13 -5z m0 -100 c-3 -3 -12 -4 -19 -1 -8 3 -5 6 6 6 11 1 17 -2 13
-5z m0 -100 c-3 -3 -12 -4 -19 -1 -8 3 -5 6 6 6 11 1 17 -2 13 -5z m0 -100
c-3 -3 -12 -4 -19 -1 -8 3 -5 6 6 6 11 1 17 -2 13 -5z m0 -100 c-3 -3 -12 -4
-19 -1 -8 3 -5 6 6 6 11 1 17 -2 13 -5z m0 -100 c-3 -3 -12 -4 -19 -1 -8 3 -5
6 6 6 11 1 17 -2 13 -5z m0 -100 c-3 -3 -12 -4 -19 -1 -8 3 -5 6 6 6 11 1 17
-2 13 -5z m0 -100 c-3 -3 -12 -4 -19 -1 -8 3 -5 6 6 6 11 1 17 -2 13 -5z m0
-100 c-3 -3 -12 -4 -19 -1 -8 3 -5 6 6 6 11 1 17 -2 13 -5z m0 -100 c-3 -3
-12 -4 -19 -1 -8 3 -5 6 6 6 11 1 17 -2 13 -5z m0 -100 c-3 -3 -12 -4 -19 -1
-8 3 -5 6 6 6 11 1 17 -2 13 -5z m0 -100 c-3 -3 -12 -4 -19 -1 -8 3 -5 6 6 6
11 1 17 -2 13 -5z m0 -100 c-3 -3 -12 -4 -19 -1 -8 3 -5 6 6 6 11 1 17 -2 13
-5z m0 -100 c-3 -3 -12 -4 -19 -1 -8 3 -5 6 6 6 11 1 17 -2 13 -5z m0 -100
c-3 -3 -12 -4 -19 -1 -8 3 -5 6 6 6 11 1 17 -2 13 -5z m0 -100 c-3 -3 -12 -4
-19 -1 -8 3 -5 6 6 6 11 1 17 -2 13 -5z m0 -100 c-3 -3 -12 -4 -19 -1 -8 3 -5
6 6 6 11 1 17 -2 13 -5z"/>
<path d="M4629 4140 c-2 -3 -6 -147 -9 -320 l-5 -315 -32 -3 -33 -3 0 -105 0
-104 25 0 c14 0 25 5 25 10 0 6 18 10 40 10 l40 0 0 405 c0 392 -1 405 -19
405 -11 0 -22 6 -24 13 -3 6 -7 10 -8 7z"/>
<path d="M4057 4106 c-4 -10 -7 -203 -6 -429 0 -227 3 -406 6 -399 2 6 16 12
29 12 13 0 24 4 24 8 0 12 39 12 46 0 13 -21 24 18 24 90 l0 72 -35 0 -35 0 0
320 c0 309 -1 320 -19 320 -11 0 -21 5 -23 12 -3 7 -7 5 -11 -6z"/>
<path d="M6307 4106 c-4 -10 -7 -193 -7 -407 l0 -389 50 0 c28 0 50 5 50 10 0
6 7 10 15 10 12 0 15 14 15 65 l0 65 -29 0 c-16 0 -32 -6 -34 -12 -3 -7 -6
137 -6 320 -1 320 -2 332 -20 332 -11 0 -21 5 -23 12 -3 7 -7 5 -11 -6z"/>
<path d="M2300 3675 c0 -418 0 -425 20 -425 11 0 20 5 20 10 0 6 17 10 39 10
47 0 51 9 51 128 0 69 -3 82 -16 82 -9 0 -25 -10 -35 -22 -19 -21 -19 -14 -19
310 l0 332 -30 0 -30 0 0 -425z m27 -397 c-3 -8 -6 -5 -6 6 -1 11 2 17 5 13 3
-3 4 -12 1 -19z"/>
<path d="M3050 3685 c0 -402 1 -415 19 -415 11 0 21 5 23 12 3 7 22 11 46 10
l42 -2 0 373 c0 204 3 382 6 395 6 20 3 22 -40 22 -25 0 -46 5 -46 10 0 6 -11
10 -25 10 l-25 0 0 -415z"/>
<path d="M4800 3686 c0 -389 0 -395 20 -393 11 1 20 5 20 9 0 4 20 8 45 8 l45
0 0 375 0 375 -45 0 c-25 0 -45 5 -45 10 0 6 -9 10 -20 10 -20 0 -20 -7 -20
-394z"/>
<path d="M3300 3665 c0 -257 4 -395 10 -395 6 0 10 6 10 13 0 8 17 12 52 12
l53 0 3 360 c1 198 0 370 -3 383 -5 20 -11 22 -65 22 l-60 0 0 -395z"/>
<path d="M3550 3655 c0 -227 4 -385 9 -385 5 0 11 5 13 11 2 6 26 11 56 11
l52 -1 0 65 c0 36 -4 64 -10 64 -5 0 -10 -4 -10 -10 0 -5 -9 -10 -19 -10 -11
0 -22 -6 -24 -12 -3 -7 -6 137 -6 320 l-1 332 -30 0 -30 0 0 -385z"/>
<path d="M5051 3668 c-1 -330 1 -378 14 -378 8 0 15 5 15 10 0 6 23 10 50 10
l50 0 0 355 0 355 -59 0 c-38 0 -61 4 -64 13 -3 6 -6 -158 -6 -365z"/>
<path d="M5301 3643 c0 -197 3 -352 6 -345 3 8 26 12 64 12 l59 0 0 35 c0 28
-4 35 -20 35 -11 0 -20 -4 -20 -10 0 -5 -7 -10 -15 -10 -13 0 -15 42 -15 320
l0 320 -30 0 -30 0 1 -357z"/>
<path d="M2630 3510 c0 -5 -18 -10 -40 -10 l-40 0 0 -125 c0 -77 4 -125 10
-125 6 0 10 5 10 10 0 6 11 10 24 10 15 0 26 7 29 18 4 16 5 16 6 0 1 -12 9
-18 26 -18 l25 0 0 125 0 125 -25 0 c-14 0 -25 -4 -25 -10z"/>
<path d="M4370 3493 c0 -8 -14 -13 -35 -13 l-35 0 0 -94 c0 -89 1 -95 20 -93
11 1 20 5 20 9 0 4 20 8 45 8 l45 0 0 95 c0 88 -1 95 -20 95 -11 0 -20 -6 -20
-12 0 -9 -4 -8 -10 2 -6 10 -10 11 -10 3z"/>
<path d="M1860 3470 c0 -5 -13 -10 -30 -10 l-30 0 0 -105 0 -105 63 0 63 0 3
115 2 115 -35 0 c-20 0 -36 -4 -36 -10z m-33 -192 c-3 -8 -6 -5 -6 6 -1 11 2
17 5 13 3 -3 4 -12 1 -19z"/>
<path d="M6051 3383 c0 -54 3 -92 6 -85 2 7 22 12 44 12 24 0 39 5 39 12 0 9
3 9 12 0 23 -23 28 -11 28 73 l0 85 -65 0 -65 0 1 -97z"/>
<path d="M3850 3450 c0 -5 -11 -10 -25 -10 -25 0 -25 -1 -25 -87 0 -58 3 -83
10 -73 6 10 23 13 56 11 31 -2 50 2 55 11 5 7 9 46 9 86 l0 72 -40 0 c-22 0
-40 -4 -40 -10z"/>
<path d="M5801 3373 c0 -49 3 -82 6 -75 3 8 26 12 64 12 l59 0 0 75 0 75 -65
0 -65 0 1 -87z"/>
<path d="M5640 3430 c0 -5 -20 -10 -45 -10 l-45 0 1 -67 c0 -38 3 -62 6 -55 3
8 26 12 64 12 l59 0 0 65 c0 58 -2 65 -20 65 -11 0 -20 -4 -20 -10z"/>
<path d="M0 3284 l1 -59 24 28 c31 35 31 38 0 67 l-25 23 0 -59z"/>
<path d="M38 3317 c12 -13 22 -27 22 -32 0 -5 -10 -19 -22 -32 l-21 -23 59 0
c53 0 64 3 87 28 l27 28 -28 27 c-24 23 -37 27 -87 27 l-58 0 21 -23z m82 -4
c0 -9 -7 -25 -17 -35 -15 -17 -15 -18 0 -18 10 0 17 -4 17 -10 0 -5 -11 -10
-25 -10 -30 0 -31 4 -5 37 26 33 25 46 -1 38 -15 -5 -19 -4 -15 4 11 17 46 13
46 -6z"/>
<path d="M718 288 l-3 -283 -2 278 -3 277 -350 0 -350 0 0 -273 0 -274 527 -6
c289 -4 935 -7 1435 -7 l908 0 0 285 0 285 -1080 0 -1080 0 -2 -282z m-528
142 l0 -80 -80 0 -80 0 0 80 0 80 80 0 80 0 0 -80z m720 0 l0 -80 -80 0 -80 0
0 80 0 80 80 0 80 0 0 -80z m-647 -17 c-7 -2 -21 -2 -30 0 -10 3 -4 5 12 5 17
0 24 -2 18 -5z m720 0 c-7 -2 -21 -2 -30 0 -10 3 -4 5 12 5 17 0 24 -2 18 -5z
m-879 -185 c8 -14 5 -23 -18 -47 l-28 -29 28 -5 c24 -3 22 -4 -10 -6 l-40 -1
33 34 c21 22 31 41 28 50 -8 19 -28 21 -47 4 -12 -11 -12 -10 0 5 16 21 39 19
54 -5z m115 8 c17 -20 10 -77 -11 -89 -24 -16 -48 8 -48 47 0 49 34 73 59 42z
m90 0 c17 -20 10 -77 -11 -89 -24 -16 -48 8 -48 47 0 49 34 73 59 42z m55 -38
l23 -52 18 47 c10 26 22 50 27 53 4 3 -2 -18 -14 -46 -13 -29 -27 -53 -32 -54
-5 0 -19 23 -32 52 -12 28 -21 52 -18 52 3 0 15 -23 28 -52z m460 30 c8 -14 5
-23 -18 -47 l-28 -29 28 -5 c24 -3 22 -4 -10 -6 l-40 -1 33 34 c21 22 31 41
28 50 -8 19 -28 21 -47 4 -12 -11 -12 -10 0 5 16 21 39 19 54 -5z m115 8 c17
-20 10 -77 -11 -89 -24 -16 -48 8 -48 47 0 49 34 73 59 42z m90 0 c17 -20 10
-77 -11 -89 -24 -16 -48 8 -48 47 0 49 34 73 59 42z m55 -38 l23 -52 18 47
c10 26 22 50 27 53 4 3 -2 -18 -14 -46 -13 -29 -27 -53 -32 -54 -5 0 -19 23
-32 52 -12 28 -21 52 -18 52 3 0 15 -23 28 -52z"/>
<path d="M84 465 c-17 -13 -17 -14 -1 -15 13 0 17 -8 17 -36 0 -21 4 -33 10
-29 12 7 14 95 2 95 -5 0 -17 -7 -28 -15z"/>
<path d="M805 474 c-9 -9 -13 -19 -10 -22 3 -3 11 0 17 6 7 7 16 12 20 12 16
0 7 -27 -17 -50 -34 -32 -32 -40 10 -40 19 0 35 5 35 10 0 6 -10 10 -22 10
l-22 0 22 16 c25 18 29 59 6 68 -21 8 -20 8 -39 -10z"/>
<path d="M174 227 c-3 -9 -4 -28 -2 -44 2 -20 8 -28 23 -28 17 0 20 7 20 40 0
30 -4 41 -18 43 -9 2 -20 -3 -23 -11z"/>
<path d="M264 227 c-3 -9 -4 -28 -2 -44 2 -20 8 -28 23 -28 17 0 20 7 20 40 0
30 -4 41 -18 43 -9 2 -20 -3 -23 -11z"/>
<path d="M894 227 c-3 -9 -4 -28 -2 -44 2 -20 8 -28 23 -28 17 0 20 7 20 40 0
30 -4 41 -18 43 -9 2 -20 -3 -23 -11z"/>
<path d="M984 227 c-3 -9 -4 -28 -2 -44 2 -20 8 -28 23 -28 17 0 20 7 20 40 0
30 -4 41 -18 43 -9 2 -20 -3 -23 -11z"/>
</g>
</svg>
